<svg width="16" height="16" viewBox="0 0 16 16" fill="none" xmlns="http://www.w3.org/2000/svg">
    <path
        d="M15.3072 8.24825L8.5572 0.748255C8.27295 0.431755 7.72695 0.431755 7.4427 0.748255L0.6927 8.24825C0.49395 8.468 0.44445 8.7845 0.5652 9.05525C0.6852 9.326 0.9537 9.5 1.24995 9.5H2.74995V14.75C2.74995 15.164 3.0852 15.5 3.49995 15.5H5.74995C6.1647 15.5 6.49995 15.164 6.49995 14.75V11.75H9.49995V14.75C9.49995 15.164 9.8352 15.5 10.25 15.5H12.5C12.9147 15.5 13.25 15.164 13.25 14.75V9.5H14.75C15.0462 9.5 15.3147 9.326 15.4347 9.05525C15.5555 8.7845 15.5059 8.46875 15.3072 8.24825Z"
        fill="#080B16" />
</svg>
