<svg width="13" height="16" viewBox="0 0 13 16" fill="none" xmlns="http://www.w3.org/2000/svg">
    <path
        d="M10.3159 9.49992C11.2474 9.49992 12.0025 10.2551 12.0025 11.1866V11.8755C12.0025 12.3054 11.8681 12.7247 11.6181 13.0746C10.4587 14.697 8.56545 15.5008 6.0003 15.5008C3.43455 15.5008 1.54232 14.6967 0.3857 13.0735C0.13673 12.724 0.00292969 12.3056 0.00292969 11.8766V11.1866C0.00292969 10.2551 0.758067 9.49992 1.68958 9.49992H10.3159ZM6.0003 0.503464C8.07135 0.503464 9.7503 2.1824 9.7503 4.25346C9.7503 6.32454 8.07135 8.00345 6.0003 8.00345C3.9292 8.00345 2.25027 6.32454 2.25027 4.25346C2.25027 2.1824 3.9292 0.503464 6.0003 0.503464Z"
        fill="#080B16" />
</svg>
