<svg width="18" height="18" viewBox="0 0 18 18" fill="none" xmlns="http://www.w3.org/2000/svg">
<path fill-rule="evenodd" clip-rule="evenodd" d="M3.9375 3.75C3.9375 3.43934 4.18934 3.1875 4.5 3.1875H13.5C13.8107 3.1875 14.0625 3.43934 14.0625 3.75C14.0625 4.06066 13.8107 4.3125 13.5 4.3125H4.5C4.18934 4.3125 3.9375 4.06066 3.9375 3.75ZM3.9375 14.25C3.9375 13.9393 4.18934 13.6875 4.5 13.6875H13.5C13.8107 13.6875 14.0625 13.9393 14.0625 14.25C14.0625 14.5607 13.8107 14.8125 13.5 14.8125H4.5C4.18934 14.8125 3.9375 14.5607 3.9375 14.25Z" fill="#080B16"/>
<path d="M3.75 7.5C3.75 7.08579 4.08579 6.75 4.5 6.75H13.5C13.9142 6.75 14.25 7.08579 14.25 7.5V10.5C14.25 10.9142 13.9142 11.25 13.5 11.25H4.5C4.08579 11.25 3.75 10.9142 3.75 10.5V7.5Z" fill="#080B16"/>
<path fill-rule="evenodd" clip-rule="evenodd" d="M3.1875 7.5C3.1875 6.77513 3.77513 6.1875 4.5 6.1875H13.5C14.2249 6.1875 14.8125 6.77513 14.8125 7.5V10.5C14.8125 11.2249 14.2249 11.8125 13.5 11.8125H4.5C3.77513 11.8125 3.1875 11.2249 3.1875 10.5V7.5ZM4.5 7.3125C4.39645 7.3125 4.3125 7.39645 4.3125 7.5V10.5C4.3125 10.6036 4.39645 10.6875 4.5 10.6875H13.5C13.6036 10.6875 13.6875 10.6036 13.6875 10.5V7.5C13.6875 7.39645 13.6036 7.3125 13.5 7.3125H4.5Z" fill="#080B16"/>
</svg>
