<svg width="20" height="20" viewBox="0 0 20 20" fill="none" xmlns="http://www.w3.org/2000/svg">
<path d="M2.66183 10.9961C1.96296 9.81802 1.71821 8.4253 1.97354 7.07949C2.22887 5.73368 2.96671 4.52737 4.04851 3.68708C5.13032 2.84679 6.48166 2.43031 7.8488 2.51587C9.21594 2.60142 10.5048 3.18311 11.4734 4.15171C12.442 5.12032 13.0237 6.4092 13.1093 7.77634C13.1949 9.14348 12.7784 10.4948 11.9381 11.5766C11.0978 12.6584 9.89151 13.3963 8.5457 13.6516C7.19989 13.907 5.80717 13.6622 4.62904 12.9634L4.62905 12.9633L2.68629 13.5184C2.60591 13.5413 2.52085 13.5424 2.43993 13.5214C2.35901 13.5005 2.28517 13.4582 2.22606 13.3991C2.16694 13.34 2.12472 13.2662 2.10375 13.1852C2.08278 13.1043 2.08383 13.0193 2.1068 12.9389L2.66187 10.9961L2.66183 10.9961Z" stroke="#3891FA" stroke-width="1.5" stroke-linecap="round" stroke-linejoin="round"/>
<path d="M7.19211 13.7416C7.46863 14.5266 7.9158 15.2405 8.50141 15.8319C9.08703 16.4233 9.79651 16.8775 10.5788 17.1617C11.361 17.4459 12.1966 17.5531 13.0252 17.4755C13.8539 17.398 14.655 17.1376 15.371 16.7132L15.3709 16.7132L17.3137 17.2682C17.3941 17.2912 17.4791 17.2923 17.5601 17.2713C17.641 17.2503 17.7148 17.2081 17.7739 17.149C17.833 17.0899 17.8753 17.016 17.8962 16.9351C17.9172 16.8542 17.9162 16.7691 17.8932 16.6887L17.3381 14.746L17.3382 14.746C17.8314 13.9143 18.1019 12.9694 18.1236 12.0027C18.1453 11.0359 17.9175 10.0799 17.4621 9.22684C17.0068 8.37378 16.3393 7.65246 15.524 7.13249C14.7087 6.61251 13.7732 6.31144 12.8076 6.2583" stroke="#3891FA" stroke-width="1.5" stroke-linecap="round" stroke-linejoin="round"/>
</svg>
