<svg width="24" height="24" viewBox="0 0 24 24" fill="none" xmlns="http://www.w3.org/2000/svg">
<path d="M21.666 12.277C21.731 12.057 21.792 11.836 21.837 11.612C21.84 11.595 21.841 11.579 21.845 11.562C21.865 11.464 21.874 11.363 21.89 11.264C21.915 11.107 21.945 10.951 21.96 10.793C21.986 10.533 22 10.268 22 10C22 7.791 21.104 5.791 19.657 4.343C18.209 2.896 16.209 2 14 2V10H6.517L5.659 8H2V10H4.341L6.169 14.266C4.898 14.791 4 16.042 4 17.5C4 19.43 5.57 21 7.5 21C9.259 21 10.704 19.691 10.949 18H13.051C13.296 19.691 14.741 21 16.5 21C18.43 21 20 19.43 20 17.5C20 16.87 19.819 16.287 19.527 15.775C19.569 15.734 19.616 15.698 19.658 15.656C20.018 15.295 20.346 14.897 20.635 14.472C20.923 14.042 21.171 13.586 21.371 13.113C21.387 13.076 21.397 13.037 21.412 13H21.413C21.419 12.986 21.422 12.972 21.428 12.958C21.516 12.738 21.596 12.517 21.663 12.29C21.664 12.286 21.665 12.282 21.666 12.277ZM7.5 19C6.673 19 6 18.327 6 17.5C6 16.673 6.673 16 7.5 16C8.327 16 9 16.673 9 17.5C9 18.327 8.327 19 7.5 19ZM16.5 19C15.673 19 15 18.327 15 17.5C15 16.673 15.673 16 16.5 16C17.327 16 18 16.673 18 17.5C18 18.327 17.327 19 16.5 19Z" fill="white"/>
</svg>
