<svg width="26" height="25" viewBox="0 0 26 25" fill="none" xmlns="http://www.w3.org/2000/svg">
<rect x="3.99622" y="3.49622" width="18.0075" height="18.0075" rx="3" stroke="white" stroke-width="1.5" stroke-linecap="round" stroke-linejoin="round"/>
<path d="M22.0037 8.49832H3.99622" stroke="white" stroke-width="1.5" stroke-linecap="round" stroke-linejoin="round"/>
<path d="M14.7497 11.9498C14.7226 11.9498 14.7007 11.9717 14.7007 11.9988C14.7007 12.0259 14.7226 12.0478 14.7497 12.0478C14.7768 12.0478 14.7987 12.0259 14.7987 11.9988C14.7987 11.9717 14.7768 11.9498 14.7497 11.9498" stroke="white" stroke-width="1.5" stroke-linecap="round" stroke-linejoin="round"/>
<path d="M11.2482 14.951C11.2353 14.951 11.223 14.9562 11.2139 14.9654C11.2049 14.9747 11.1999 14.9871 11.2002 15C11.2002 15.02 11.2123 15.0379 11.2307 15.0454C11.2492 15.0529 11.2703 15.0486 11.2843 15.0343C11.2982 15.0201 11.3021 14.9989 11.2942 14.9806C11.2863 14.9623 11.2681 14.9506 11.2482 14.951" stroke="white" stroke-width="1.5" stroke-linecap="round" stroke-linejoin="round"/>
<path d="M7.74681 14.951C7.73355 14.9507 7.72076 14.9559 7.71147 14.9654C7.70219 14.9749 7.69723 14.9878 7.69779 15.001C7.69779 15.0209 7.70985 15.0389 7.72829 15.0464C7.74673 15.0539 7.76789 15.0495 7.78183 15.0353C7.79577 15.0211 7.79971 14.9998 7.79181 14.9816C7.7839 14.9633 7.76572 14.9516 7.74581 14.952" stroke="white" stroke-width="1.5" stroke-linecap="round" stroke-linejoin="round"/>
<path d="M11.2482 17.9533C11.2353 17.9533 11.223 17.9585 11.2139 17.9677C11.2049 17.9769 11.1999 17.9894 11.2002 18.0023C11.2002 18.0222 11.2123 18.0401 11.2307 18.0477C11.2492 18.0552 11.2703 18.0508 11.2843 18.0366C11.2982 18.0224 11.3021 18.0011 11.2942 17.9828C11.2863 17.9645 11.2681 17.9529 11.2482 17.9533" stroke="white" stroke-width="1.5" stroke-linecap="round" stroke-linejoin="round"/>
<path d="M7.74679 17.9533C7.73371 17.953 7.72108 17.9581 7.71183 17.9673C7.70258 17.9766 7.6975 17.9892 7.69777 18.0023C7.69778 18.0222 7.70983 18.0401 7.72827 18.0477C7.74671 18.0552 7.76788 18.0508 7.78181 18.0366C7.79575 18.0224 7.79969 18.0011 7.79179 17.9828C7.78389 17.9645 7.76571 17.9529 7.74579 17.9533" stroke="white" stroke-width="1.5" stroke-linecap="round" stroke-linejoin="round"/>
<path d="M18.2512 11.9508C18.2383 11.9508 18.2259 11.956 18.2169 11.9652C18.2078 11.9744 18.2029 11.9869 18.2031 11.9998C18.2031 12.0197 18.2152 12.0376 18.2336 12.0452C18.2521 12.0527 18.2732 12.0483 18.2872 12.0341C18.3011 12.0199 18.3051 11.9986 18.2972 11.9803C18.2893 11.962 18.2711 11.9504 18.2512 11.9508" stroke="white" stroke-width="1.5" stroke-linecap="round" stroke-linejoin="round"/>
<path d="M14.7507 11.9508C14.7309 11.9508 14.713 11.9627 14.7054 11.981C14.6978 11.9993 14.702 12.0204 14.716 12.0344C14.7301 12.0485 14.7511 12.0527 14.7695 12.0451C14.7878 12.0375 14.7997 12.0196 14.7997 11.9998C14.7997 11.9727 14.7778 11.9508 14.7507 11.9508" stroke="white" stroke-width="1.5" stroke-linecap="round" stroke-linejoin="round"/>
<path d="M14.7497 14.951C14.7226 14.951 14.7007 14.973 14.7007 15C14.7007 15.0271 14.7226 15.049 14.7497 15.049C14.7768 15.049 14.7987 15.0271 14.7987 15C14.7987 14.973 14.7768 14.951 14.7497 14.951" stroke="white" stroke-width="1.5" stroke-linecap="round" stroke-linejoin="round"/>
<path d="M18.2512 14.952C18.2383 14.952 18.2259 14.9572 18.2169 14.9664C18.2078 14.9756 18.2029 14.9881 18.2031 15.001C18.2031 15.0209 18.2152 15.0389 18.2336 15.0464C18.2521 15.0539 18.2732 15.0495 18.2872 15.0353C18.3011 15.0211 18.3051 14.9998 18.2972 14.9815C18.2893 14.9633 18.2711 14.9516 18.2512 14.952" stroke="white" stroke-width="1.5" stroke-linecap="round" stroke-linejoin="round"/>
<path d="M14.7507 14.953C14.7309 14.953 14.713 14.965 14.7054 14.9833C14.6978 15.0016 14.702 15.0227 14.716 15.0367C14.7301 15.0507 14.7511 15.0549 14.7695 15.0473C14.7878 15.0397 14.7997 15.0219 14.7997 15.002C14.7997 14.975 14.7778 14.953 14.7507 14.953" stroke="white" stroke-width="1.5" stroke-linecap="round" stroke-linejoin="round"/>
</svg>
