<svg width="24" height="24" viewBox="0 0 24 24" fill="none" xmlns="http://www.w3.org/2000/svg">
<path fill-rule="evenodd" clip-rule="evenodd" d="M10.8559 13.144C9.6859 11.974 8.8039 10.664 8.2179 9.33499C8.0939 9.05399 8.1669 8.72499 8.3839 8.50799L9.2029 7.68999C9.8739 7.01899 9.8739 6.06999 9.2879 5.48399L8.1139 4.30999C7.3329 3.52899 6.0669 3.52899 5.2859 4.30999L4.6339 4.96199C3.8929 5.70299 3.5839 6.77199 3.7839 7.83199C4.2779 10.445 5.7959 13.306 8.2449 15.755C10.6939 18.204 13.5549 19.722 16.1679 20.216C17.2279 20.416 18.2969 20.107 19.0379 19.366L19.6889 18.715C20.4699 17.934 20.4699 16.668 19.6889 15.887L18.5159 14.714C17.9299 14.128 16.9799 14.128 16.3949 14.714L15.4919 15.618C15.2749 15.835 14.9459 15.908 14.6649 15.784C13.3359 15.197 12.0259 14.314 10.8559 13.144Z" stroke="white" stroke-width="1.5" stroke-linecap="round" stroke-linejoin="round"/>
</svg>
