<svg width="225" height="200" viewBox="0 0 225 200" fill="none" xmlns="http://www.w3.org/2000/svg">
    <defs>
        <linearGradient id="paint0_linear_2496_4535" x1="221.483" y1="443.069" x2="221.483"
            y2="-9.15527e-05" gradientUnits="userSpaceOnUse">
            <stop stop-color="#3891FA" stop-opacity="0.3" />
            <stop offset="1" stop-color="#3891FA" stop-opacity="0.1" />
        </linearGradient>
        <linearGradient id="paint1_linear_2496_4535" x1="221.5" y1="74.9292" x2="221.5" y2="53.3313"
            gradientUnits="userSpaceOnUse">
            <stop stop-color="#3891FA" stop-opacity="0.3" />
            <stop offset="1" stop-color="#3891FA" stop-opacity="0.1" />
        </linearGradient>
        <linearGradient id="paint2_linear_2496_4535" x1="221.552" y1="118.364" x2="221.552"
            y2="59.9614" gradientUnits="userSpaceOnUse">
            <stop stop-color="#3891FA" stop-opacity="0.3" />
            <stop offset="1" stop-color="#3891FA" stop-opacity="0.1" />
        </linearGradient>
        <linearGradient id="paint3_linear_2496_4535" x1="114.297" y1="149.962" x2="114.297"
            y2="78.6325" gradientUnits="userSpaceOnUse">
            <stop stop-color="#3891FA" stop-opacity="0.3" />
            <stop offset="1" stop-color="#3891FA" stop-opacity="0.1" />
        </linearGradient>
        <linearGradient id="paint4_linear_2496_4535" x1="174.812" y1="125.537" x2="174.812"
            y2="85.485" gradientUnits="userSpaceOnUse">
            <stop stop-color="#3891FA" stop-opacity="0.3" />
            <stop offset="1" stop-color="#3891FA" stop-opacity="0.1" />
        </linearGradient>
        <linearGradient id="paint5_linear_2496_4535" x1="108.604" y1="117.845" x2="108.604"
            y2="99.362" gradientUnits="userSpaceOnUse">
            <stop stop-color="#3891FA" stop-opacity="0.3" />
            <stop offset="1" stop-color="#3891FA" stop-opacity="0.1" />
        </linearGradient>
        <linearGradient id="paint6_linear_2496_4535" x1="221.5" y1="136.396" x2="221.5" y2="116.218"
            gradientUnits="userSpaceOnUse">
            <stop stop-color="#3891FA" stop-opacity="0.3" />
            <stop offset="1" stop-color="#3891FA" stop-opacity="0.1" />
        </linearGradient>
        <linearGradient id="paint7_linear_2496_4535" x1="153.869" y1="181.422" x2="153.869"
            y2="126.393" gradientUnits="userSpaceOnUse">
            <stop stop-color="#3891FA" stop-opacity="0.3" />
            <stop offset="1" stop-color="#3891FA" stop-opacity="0.1" />
        </linearGradient>
        <linearGradient id="paint8_linear_2496_4535" x1="191.459" y1="168.393" x2="191.459"
            y2="138.783" gradientUnits="userSpaceOnUse">
            <stop stop-color="#3891FA" stop-opacity="0.3" />
            <stop offset="1" stop-color="#3891FA" stop-opacity="0.1" />
        </linearGradient>
        <linearGradient id="paint9_linear_2496_4535" x1="221.5" y1="185.792" x2="221.5" y2="140.168"
            gradientUnits="userSpaceOnUse">
            <stop stop-color="#3891FA" stop-opacity="0.3" />
            <stop offset="1" stop-color="#3891FA" stop-opacity="0.1" />
        </linearGradient>
        <linearGradient id="paint10_linear_2496_4535" x1="105.47" y1="209.11" x2="105.47"
            y2="140.514" gradientUnits="userSpaceOnUse">
            <stop stop-color="#3891FA" stop-opacity="0.3" />
            <stop offset="1" stop-color="#3891FA" stop-opacity="0.1" />
        </linearGradient>
        <linearGradient id="paint11_linear_2496_4535" x1="179.64" y1="196.236" x2="179.64"
            y2="163.045" gradientUnits="userSpaceOnUse">
            <stop stop-color="#3891FA" stop-opacity="0.3" />
            <stop offset="1" stop-color="#3891FA" stop-opacity="0.1" />
        </linearGradient>
        <linearGradient id="paint12_linear_2496_4535" x1="221.5" y1="277.567" x2="221.5"
            y2="165.433" gradientUnits="userSpaceOnUse">
            <stop stop-color="#3891FA" stop-opacity="0.3" />
            <stop offset="1" stop-color="#3891FA" stop-opacity="0.1" />
        </linearGradient>
        <linearGradient id="paint13_linear_2496_4535" x1="153.498" y1="216.516" x2="153.498"
            y2="166.436" gradientUnits="userSpaceOnUse">
            <stop stop-color="#3891FA" stop-opacity="0.3" />
            <stop offset="1" stop-color="#3891FA" stop-opacity="0.1" />
        </linearGradient>
        <linearGradient id="paint14_linear_2496_4535" x1="89.1913" y1="265.904" x2="89.1913"
            y2="177.2" gradientUnits="userSpaceOnUse">
            <stop stop-color="#3891FA" stop-opacity="0.3" />
            <stop offset="1" stop-color="#3891FA" stop-opacity="0.1" />
        </linearGradient>
        <linearGradient id="paint15_linear_2496_4535" x1="126.307" y1="260.262" x2="126.307"
            y2="182.737" gradientUnits="userSpaceOnUse">
            <stop stop-color="#3891FA" stop-opacity="0.3" />
            <stop offset="1" stop-color="#3891FA" stop-opacity="0.1" />
        </linearGradient>
        <clipPath id="clip0_2496_4535">
            <rect width="443" height="443" fill="white" />
        </clipPath>
    </defs>
    <g clip-path="url(#clip0_2496_4535)">
        <path
            d="M215.824 1.73035C205.58 5.15668 195.128 10.9019 185.022 18.6543C181.284 21.4923 178.342 24.884 173.877 31.4944C166.679 42.1195 161.972 52.3293 159.549 62.6429C158.926 65.2039 158.338 67.592 158.199 67.9035C158.026 68.4226 157.473 68.1458 154.565 66.2769C143.663 59.2165 129.577 54.4404 113.45 52.2946C109.262 51.7409 108.258 51.7409 105.074 52.1216C90.988 53.8175 76.9366 58.0398 67.4883 63.4389C65.1002 64.7886 64.7887 65.1001 63.439 67.4882C58.0745 76.9365 53.8522 90.9533 52.1217 105.143C51.741 108.258 51.7756 109.296 52.2948 113.449C54.4405 129.577 59.2166 143.663 66.2769 154.565C68.1458 157.473 68.4227 158.026 67.9036 158.199C67.5921 158.338 65.204 158.926 62.643 159.549C52.3294 161.972 42.1196 166.679 31.4945 173.877C24.8841 178.342 21.4924 181.284 18.6545 185.022C11.2134 194.712 5.05298 205.96 1.73048 215.893L-0.138428 221.5L1.73048 227.141C5.05298 237.005 10.6597 247.318 18.2391 257.424C20.5234 260.47 21.977 261.958 24.538 264C37.3435 274.21 51.8448 281.339 65.3771 284.143C67.0037 284.489 68.3189 284.939 68.2843 285.112C68.2151 285.32 67.3498 286.808 66.2769 288.4C59.3205 299.129 54.4405 313.457 52.2948 329.55C51.7756 333.703 51.741 334.742 52.1217 337.857C53.8522 352.012 58.0053 365.856 63.4736 375.615C64.9618 378.28 65.7232 378.869 71.4683 381.603C81.0205 386.137 92.8223 389.39 105.074 390.878C108.258 391.259 109.262 391.259 113.415 390.705C129.681 388.525 143.594 383.818 154.565 376.723C157.473 374.854 158.026 374.577 158.199 375.096C158.338 375.408 158.926 377.796 159.549 380.357C162.006 390.705 166.783 401.123 173.981 411.609C179.899 420.296 182.288 422.684 190.871 428.533C200.077 434.797 208.694 439.054 217.97 441.962L221.5 443.069L225.065 441.962C234.132 439.158 243.027 434.728 252.129 428.533C260.712 422.684 263.1 420.296 269.019 411.609C276.217 401.123 280.993 390.705 283.451 380.357C284.074 377.796 284.662 375.408 284.8 375.096C284.974 374.577 285.527 374.854 288.434 376.723C299.406 383.818 313.319 388.525 329.585 390.705C333.738 391.259 334.742 391.259 337.926 390.878C346.717 389.805 355.75 387.729 363.225 385.029C368.036 383.299 376.1 379.526 377.657 378.315C378.903 377.311 382.953 369.04 385.029 363.225C387.729 355.715 389.805 346.717 390.878 337.926C391.259 334.742 391.259 333.738 390.705 329.55C388.559 313.457 383.679 299.129 376.723 288.4C375.65 286.808 374.785 285.32 374.716 285.112C374.681 284.939 375.996 284.489 377.623 284.143C391.155 281.339 405.656 274.21 418.427 264.035C426.595 257.563 437.289 239.843 441.962 225.03L443.104 221.5L441.962 217.935C438.397 206.722 432.271 195.301 424.276 184.918C421.334 181.145 418.358 178.55 411.678 174.016C401.053 166.782 390.74 162.006 380.357 159.549C377.796 158.926 375.408 158.338 375.096 158.199C374.577 158.026 374.854 157.473 376.723 154.565C383.783 143.663 388.559 129.577 390.705 113.449C391.397 108.223 391.259 105.974 389.736 97.4599C387.729 86.3157 383.022 72.7488 378.869 66.2076C376.342 62.1929 358.968 55.5479 344.709 53.1253C336.715 51.7409 334.638 51.6371 329.55 52.2946C313.422 54.4404 299.336 59.2165 288.434 66.2769C285.527 68.1458 284.974 68.4226 284.8 67.9035C284.662 67.592 284.074 65.2039 283.451 62.6429C280.474 50.1143 273.552 36.5474 264.035 24.5725C257.874 16.82 241.054 6.40262 227.176 1.73035C224.338 0.795898 221.777 -0.00012207 221.5 -0.00012207C221.223 -0.00012207 218.662 0.795898 215.824 1.73035ZM226.691 17.9622C230.844 19.6234 236.486 22.7383 240.016 25.334C243.719 28.0681 256.248 40.839 258.843 44.4729C261.543 48.3146 265.35 56.0325 266.977 60.9816C269.122 67.4882 269.988 72.4027 270.195 79.4284C270.438 87.9423 269.953 90.7803 267.288 96.3178C266.077 98.7751 265.454 100.506 265.661 100.679C265.835 100.852 266.942 101.682 268.119 102.547C269.988 103.897 270.611 104.139 273.102 104.486C274.66 104.728 276.044 104.797 276.183 104.624C276.287 104.486 276.91 102.721 277.567 100.782C279.021 96.214 281.028 93.0645 285.458 88.5307C293.384 80.3282 304.597 73.8563 315.776 70.9491C321.694 69.4263 324.705 69.184 336.23 69.3225C346.094 69.4263 346.82 69.4955 350.731 70.3954C355.542 71.5029 359.626 72.8872 363.814 74.8253L366.79 76.2097L368.174 79.2554C370.182 83.5815 371.497 87.4924 372.604 92.2685C373.504 96.214 373.573 96.8715 373.677 106.943C373.781 115.111 373.677 118.329 373.262 121.167C371.358 134.319 364.264 148.059 354.469 157.542C349.97 161.903 346.647 164.048 342.148 165.467C340.21 166.056 338.514 166.679 338.376 166.817C338.203 166.956 338.272 168.305 338.48 169.793C338.895 172.528 339.622 174.085 341.767 176.681L342.633 177.719L346.232 175.885C351.666 173.185 353.189 172.874 362.014 172.908C368.763 172.908 369.87 172.978 373.885 173.843C380.045 175.158 384.925 176.854 390.567 179.588C397.489 182.98 400.534 185.298 408.564 193.293C417.804 202.465 420.85 206.652 424.518 215.236C427.045 221.085 427.08 221.292 425.73 224.857C423.515 230.741 420.4 236.451 416.939 240.881C414.136 244.515 401.953 256.386 398.596 258.774C388.456 265.938 374.543 270.299 361.702 270.299C354.746 270.299 351.666 269.676 346.682 267.288L342.598 265.315L341.767 266.319C339.622 268.915 338.895 270.472 338.48 273.206C338.272 274.694 338.203 276.01 338.376 276.148C338.514 276.287 340.21 276.909 342.148 277.532C346.682 278.986 350.004 281.132 354.469 285.458C364.264 294.941 371.358 308.681 373.262 321.832C373.677 324.67 373.781 327.889 373.677 336.057C373.573 346.128 373.504 346.786 372.604 350.731C371.497 355.507 370.182 359.418 368.174 363.744L366.79 366.79L363.744 368.174C359.418 370.182 355.507 371.497 350.731 372.604C346.82 373.504 346.094 373.573 336.23 373.677C324.705 373.816 321.694 373.573 315.776 372.051C304.597 369.178 293.384 362.637 285.458 354.469C281.132 350.004 278.986 346.682 277.533 342.148C276.91 340.21 276.287 338.514 276.183 338.376C276.044 338.203 274.66 338.272 273.102 338.514C270.611 338.86 269.988 339.103 268.119 340.452C266.942 341.318 265.835 342.148 265.661 342.321C265.454 342.494 266.077 344.225 267.288 346.682C269.953 352.219 270.438 355.057 270.195 363.571C269.918 373.089 268.015 380.911 263.862 389.667C260.159 397.489 258.047 400.257 249.014 409.256C240.154 418.081 236.174 420.919 227.591 424.622C221.95 427.045 221.708 427.045 218.143 425.73C212.398 423.549 206.687 420.435 202.292 417.077C199.592 415.035 187.514 402.922 185.472 400.257C180.073 393.162 175.989 383.887 173.843 373.885C172.978 369.87 172.908 368.763 172.908 362.014C172.874 353.223 173.185 351.597 175.816 346.405C176.785 344.502 177.546 342.84 177.546 342.702C177.546 342.529 176.473 341.629 175.123 340.66C172.943 339.068 172.424 338.86 169.897 338.48C168.34 338.272 166.956 338.203 166.817 338.376C166.679 338.514 166.056 340.21 165.467 342.148C164.048 346.647 161.903 349.97 157.542 354.469C149.616 362.637 138.403 369.178 127.224 372.051C121.306 373.573 118.295 373.816 106.77 373.677C96.9062 373.573 96.1794 373.504 92.2686 372.604C87.4925 371.497 83.5816 370.182 79.2554 368.174L76.2098 366.79L74.8255 363.744C72.8181 359.418 71.503 355.507 70.3955 350.731C69.4956 346.82 69.4264 346.094 69.3226 336.23C69.1841 324.705 69.4264 321.694 70.9492 315.776C73.8564 304.597 80.3283 293.384 88.5308 285.458C92.9954 281.132 96.3179 278.986 100.852 277.532C102.79 276.909 104.486 276.287 104.624 276.183C104.797 276.044 104.728 274.66 104.486 273.102C104.14 270.611 103.897 269.988 102.548 268.119C101.682 266.942 100.852 265.834 100.679 265.661C100.506 265.454 98.7751 266.077 96.3179 267.288C91.3341 269.676 88.2539 270.299 81.2974 270.299C74.2717 270.299 67.7651 269.226 60.5664 266.838C55.998 265.35 48.1762 261.439 44.5076 258.843C40.8737 256.248 28.7604 244.411 25.784 240.535C23.0845 237.005 20.4541 232.471 18.5852 228.041C16.301 222.677 16.0588 221.777 16.5779 220.046C18.0315 215.236 22.0808 207.345 25.4725 202.811C28.1374 199.246 40.9429 186.683 44.473 184.156C48.3147 181.457 56.0326 177.65 60.9817 176.023C63.0583 175.331 66.6923 174.362 69.1149 173.843C73.1296 172.978 74.2371 172.908 80.9859 172.908C89.7767 172.874 91.4033 173.185 96.5947 175.816C98.4983 176.785 100.16 177.546 100.298 177.546C100.471 177.546 101.371 176.473 102.34 175.123C103.932 172.943 104.14 172.424 104.52 169.897C104.728 168.34 104.797 166.956 104.624 166.817C104.486 166.679 102.79 166.056 100.852 165.467C96.3525 164.048 93.03 161.903 88.5308 157.542C80.3283 149.616 73.8564 138.403 70.9492 127.224C69.4264 121.306 69.1841 118.295 69.3226 106.77C69.4264 96.9061 69.4956 96.1794 70.3955 92.2685C71.503 87.4924 72.8181 83.5815 74.8255 79.2554L76.2098 76.2097L79.1862 74.8253C83.374 72.8872 87.4579 71.5029 92.2686 70.3954C96.1794 69.4955 96.9062 69.4263 106.77 69.3225C118.295 69.184 121.306 69.4263 127.224 70.9491C138.403 73.8563 149.616 80.3282 157.542 88.5307C161.972 93.0991 164.014 96.2486 165.433 100.782C166.056 102.755 166.679 104.486 166.817 104.624C166.956 104.797 168.34 104.728 169.897 104.486C172.389 104.139 173.012 103.897 174.881 102.547C176.058 101.682 177.165 100.852 177.338 100.679C177.546 100.506 176.923 98.7751 175.712 96.3178C173.047 90.7803 172.562 87.9423 172.805 79.4284C173.012 72.4027 173.877 67.5228 175.989 60.9816C177.754 55.6518 181.872 47.5532 184.849 43.6077C187.617 39.9045 199.385 28.0335 202.811 25.4724C207.172 22.2191 211.809 19.7272 217.693 17.4084C221.258 16.024 221.846 16.0587 226.691 17.9622Z"
            fill="url(#paint0_linear_2496_4535)" fill-opacity="0.6" />
        <path
            d="M218.039 54.3366C216.412 54.8558 214.993 55.5133 214.855 55.7902C214.717 56.0325 214.301 57.3822 213.886 58.8012C213.471 60.1856 212.778 62.2276 212.294 63.2658L211.429 65.2386L212.398 65.8961C212.917 66.2422 215.201 68.4226 217.451 70.7415L221.5 74.9292L225.584 70.7415C227.799 68.4226 230.083 66.2422 230.602 65.8961L231.571 65.2386L230.706 63.2658C230.222 62.2276 229.529 60.1856 229.114 58.8012C228.699 57.3822 228.283 56.0325 228.145 55.7902C227.903 55.3403 222.123 53.2637 221.327 53.3329C221.154 53.3676 219.666 53.8175 218.039 54.3366Z"
            fill="url(#paint1_linear_2496_4535)" fill-opacity="0.6" />
        <path
            d="M180.557 60.8086C178.931 63.9927 177.2 70.8107 177.2 74.064V75.31L179.554 74.9985C192.67 73.095 209.248 86.2811 216.17 104.174C217.624 107.981 218.731 112.861 218.731 115.664C218.731 117.949 219.147 118.364 221.5 118.364C223.819 118.364 224.269 117.949 224.269 115.803C224.269 111.338 225.826 105.905 228.803 99.848C234.686 87.9078 245.207 78.1825 254.933 75.656C257.874 74.8946 261.474 74.6524 263.862 75.0331L265.904 75.3446L265.696 72.8873C265.558 71.5029 265.212 69.3225 264.935 68.0074C264.346 65.4809 262.478 60.3587 262.028 60.0818C261.37 59.6665 249.153 61.6393 244.861 62.8506C236.555 65.204 228.664 70.7415 223.438 77.871C222.504 79.117 221.638 80.1207 221.5 80.1207C221.362 80.1207 220.462 79.117 219.562 77.871C217.278 74.7908 213.021 70.6377 210.01 68.5265C204.057 64.3042 198.45 62.3314 188.414 60.9125C185.576 60.5317 182.772 60.1164 182.149 60.0126C181.18 59.8742 180.972 59.978 180.557 60.8086Z"
            fill="url(#paint2_linear_2496_4535)" fill-opacity="0.6" />
        <path
            d="M132.485 83.0279C124.698 93.3068 121.998 99.2597 121.098 108.223C120.683 112.065 120.994 118.537 121.721 121.098C121.894 121.86 121.86 121.894 121.098 121.721C118.468 120.994 112.238 120.683 108.327 121.064C99.2943 121.963 93.5492 124.559 83.0279 132.485L78.6325 135.773L79.2555 137.572C80.363 140.756 83.0625 145.29 85.7274 148.405L86.6965 149.582L88.3577 147.471C91.0573 143.975 95.5565 141.033 100.54 139.51C114.246 135.253 133.246 138.991 144.217 148.093L146.467 149.962L147.609 149.374C148.232 149.028 149.028 148.232 149.374 147.609L149.962 146.467L148.094 144.217C141.172 135.876 137.295 123.244 137.849 110.75C138.299 100.782 141.691 92.8223 147.471 88.3577L149.582 86.6965L148.405 85.7274C145.29 83.0625 140.756 80.3629 137.572 79.2554L135.773 78.6325L132.485 83.0279Z"
            fill="url(#paint3_linear_2496_4535)" fill-opacity="0.6" />
        <path
            d="M196.027 89.292C190.836 95.1064 182.841 102.132 176.681 106.32C174.397 107.877 174.016 108.016 170.001 108.639C162.906 109.815 157.161 110.161 148.578 109.988L140.514 109.815V112.515C140.514 116.08 141.102 120.129 142.002 122.863C142.764 125.078 142.764 125.113 144.321 125.39C146.19 125.736 159.342 125.424 164.221 124.94C168.202 124.524 174.604 123.486 178.134 122.69C180.038 122.24 181.284 121.652 184.053 119.817C191.563 114.799 199.004 108.466 206.41 100.817L209.11 97.9789L208.245 96.0754C207.76 95.0371 206.86 93.4105 206.237 92.5107C205.026 90.7802 200.111 85.485 199.696 85.485C199.558 85.485 197.931 87.2154 196.027 89.292Z"
            fill="url(#paint4_linear_2496_4535)" fill-opacity="0.6" />
        <path
            d="M105.559 100.99C102.582 102.582 102.582 102.582 100.99 105.558L99.3981 108.569L101.717 113.207L104.001 117.845L110.888 117.81H117.81L117.776 110.784L117.741 103.759L115.872 102.997C114.834 102.582 112.792 101.578 111.304 100.782C109.816 99.9863 108.604 99.3287 108.57 99.3633C108.535 99.3633 107.185 100.09 105.559 100.99Z"
            fill="url(#paint5_linear_2496_4535)" fill-opacity="0.6" />
        <path
            d="M192.947 118.745C191.251 120.06 188.24 122.171 186.302 123.452C184.33 124.767 182.738 125.909 182.738 126.013C182.738 126.29 188.621 129.058 192.186 130.443C200.769 133.834 213.367 136.396 221.5 136.396C229.633 136.396 242.231 133.834 250.814 130.443C254.379 129.058 260.263 126.29 260.263 126.013C260.263 125.909 259.051 125.009 257.563 124.075C256.109 123.106 253.064 120.96 250.78 119.298L246.696 116.218L244.723 117.118C240.016 119.229 227.695 121.583 221.5 121.583C215.236 121.583 201.877 118.987 197.966 116.98C197.204 116.599 196.477 116.287 196.339 116.322C196.201 116.322 194.678 117.395 192.947 118.745Z"
            fill="url(#paint6_linear_2496_4535)" fill-opacity="0.6" />
        <path
            d="M180.107 126.67C179.346 126.982 170.174 128.574 167.094 128.955L165.121 129.162L163.252 133.038C159.722 140.341 152.904 149.478 148.024 153.354C142.625 157.68 137.745 160.934 133.385 163.079L129.197 165.121L128.608 169.413C128.262 171.801 127.639 175.47 127.224 177.581L126.428 181.422L127.432 181.215C129.335 180.834 136.396 177.892 140.895 175.608C147.817 172.078 156.019 166.437 160.899 161.833C165.121 157.853 171.87 148.232 175.608 140.895C177.927 136.361 180.834 129.335 181.215 127.363C181.457 126.29 181.284 126.186 180.107 126.67Z"
            fill="url(#paint7_linear_2496_4535)" fill-opacity="0.6" />
        <path
            d="M209.975 139.303C197.793 140.791 187.341 144.494 177.823 150.724C174.154 153.112 168.617 157.438 167.232 158.961L166.402 159.826L167.129 160.241C167.544 160.449 169.655 162.318 171.836 164.394C174.016 166.471 176.092 168.236 176.473 168.374C176.958 168.513 177.961 167.89 180.211 166.125C183.464 163.495 189.002 160.587 193.293 159.168C194.643 158.753 196.027 158.199 196.408 157.957C197.862 157.023 203.122 154.946 206.099 154.15C207.829 153.7 210.633 153.216 212.398 153.077L215.582 152.869L215.928 151.104C216.101 150.135 216.309 146.951 216.378 144.044L216.516 138.783L215.132 138.818C214.336 138.853 212.017 139.06 209.975 139.303Z"
            fill="url(#paint8_linear_2496_4535)" fill-opacity="0.6" />
        <path
            d="M220.012 145.429C219.596 154.635 217.693 164.775 214.924 172.424L213.817 175.435L217.001 179.657C218.731 181.976 220.393 184.33 220.704 184.883C221.431 186.095 221.569 186.095 222.296 184.883C222.608 184.33 224.269 181.976 225.999 179.657L229.183 175.435L228.076 172.424C225.307 164.775 223.404 154.635 222.988 145.429L222.781 140.168H221.5H220.219L220.012 145.429Z"
            fill="url(#paint9_linear_2496_4535)" fill-opacity="0.6" />
        <path
            d="M109.885 151.485C109.85 161.141 109.746 163.114 109.089 167.509C108.639 170.278 108.154 173.047 107.981 173.67C107.081 177.061 96.5948 189.486 88.427 196.858L85.3121 199.661L87.3887 201.772C90.1574 204.61 93.1339 206.825 95.7988 208.106L97.9792 209.11L100.817 206.41C108.327 199.177 114.869 191.493 119.748 184.156C122.448 180.107 122.967 178.411 124.213 169.69C125.424 161.314 126.013 147.989 125.355 144.148C125.113 142.798 125.044 142.729 122.863 142.002C120.129 141.102 116.114 140.514 112.55 140.514H109.885V151.485Z"
            fill="url(#paint10_linear_2496_4535)" fill-opacity="0.6" />
        <path
            d="M163.945 163.944L163.045 164.844L165.987 167.994C172.216 174.673 177.996 182.945 181.63 190.386L183.568 194.401L188.794 195.162C191.632 195.577 194.505 196.027 195.162 196.131C196.339 196.339 196.339 196.339 196.131 195.162C196.028 194.505 195.578 191.632 195.162 188.725L194.366 183.464L192.29 182.564C184.987 179.415 174.881 172.493 167.648 165.675L164.844 163.045L163.945 163.944Z"
            fill="url(#paint11_linear_2496_4535)" fill-opacity="0.6" />
        <path
            d="M198.104 172.251C198.485 182.634 199.454 190.663 201.427 198.9C201.807 200.527 202.084 201.946 202.015 202.015C201.946 202.084 200.25 201.738 198.277 201.288C193.432 200.146 189.383 199.454 183.776 198.865C177.546 198.173 165.433 197.758 165.433 198.208C165.433 198.762 173.912 206.86 177.892 210.113C182.53 213.886 187.271 217.278 191.113 219.527C192.774 220.531 194.159 221.396 194.159 221.5C194.159 221.604 192.774 222.469 191.113 223.473C187.271 225.722 182.53 229.114 177.892 232.886C173.912 236.14 165.433 244.238 165.433 244.792C165.433 245.242 177.546 244.827 183.776 244.134C189.452 243.546 193.536 242.854 198.277 241.712C200.25 241.227 201.911 240.916 201.98 240.985C202.084 241.054 201.807 242.473 201.427 244.1C199.454 252.337 198.485 260.366 198.104 270.714C197.931 275.318 197.966 277.567 198.208 277.567C198.762 277.567 206.826 269.122 210.114 265.073C213.886 260.505 217.278 255.729 219.527 251.887C220.531 250.226 221.396 248.841 221.5 248.841C221.604 248.841 222.469 250.226 223.473 251.887C225.722 255.729 229.114 260.47 232.887 265.108C236.14 269.088 244.238 277.567 244.792 277.567C245.242 277.567 244.827 265.419 244.135 259.12C243.581 253.964 242.716 248.841 241.573 244.1C241.193 242.473 240.916 241.054 241.02 240.985C241.089 240.916 242.75 241.227 244.723 241.712C249.464 242.854 253.548 243.546 259.224 244.134C265.454 244.827 277.567 245.242 277.567 244.792C277.567 244.238 269.088 236.14 265.108 232.886C260.47 229.114 255.729 225.722 251.887 223.473C250.226 222.469 248.841 221.604 248.841 221.5C248.841 221.396 250.226 220.531 251.887 219.527C255.729 217.278 260.47 213.886 265.108 210.113C269.088 206.86 277.567 198.762 277.567 198.208C277.567 197.758 265.454 198.173 259.224 198.865C253.618 199.454 249.568 200.146 244.723 201.288C242.75 201.738 241.054 202.084 240.985 202.015C240.916 201.946 241.193 200.527 241.573 198.9C242.716 194.159 243.581 189.036 244.135 183.88C244.827 177.581 245.242 165.433 244.792 165.433C244.238 165.433 236.174 173.877 232.852 177.927C229.322 182.218 225.307 187.894 223.161 191.563C222.365 192.982 221.604 194.159 221.5 194.159C221.396 194.159 220.635 192.982 219.839 191.563C217.693 187.894 213.678 182.218 210.183 177.961C206.791 173.843 198.762 165.433 198.208 165.433C197.966 165.433 197.931 167.682 198.104 172.251Z"
            fill="url(#paint12_linear_2496_4535)" fill-opacity="0.6" />
        <path
            d="M158.303 167.925C154.358 172.078 149.201 179.657 146.225 185.679C144.01 190.178 141.552 197.412 140.549 202.361C139.856 205.787 138.784 213.782 138.784 215.616V216.516L144.079 216.378C146.951 216.308 150.135 216.101 151.105 215.928L152.87 215.582L153.077 212.398C153.216 210.633 153.7 207.795 154.15 206.099C154.946 203.122 157.023 197.862 157.957 196.408C158.199 196.027 158.753 194.608 159.168 193.293C160.587 188.967 163.495 183.464 166.125 180.176C169.101 176.473 169.205 176.888 164.395 171.835C162.56 169.932 160.795 167.925 160.414 167.405L159.722 166.436L158.303 167.925Z"
            fill="url(#paint13_linear_2496_4535)" fill-opacity="0.6" />
        <path
            d="M71.2953 177.442C67.3152 178.065 60.5318 180.246 60.0473 181.007C59.7704 181.492 61.5701 193.259 62.4699 196.754C63.8889 202.153 65.5501 205.787 68.5612 210.044C70.6723 213.055 75.1369 217.555 78.148 219.77C79.3247 220.6 80.2937 221.396 80.2937 221.5C80.2591 221.604 79.3247 222.365 78.148 223.23C74.9985 225.549 70.6377 229.979 68.5612 232.921C65.5155 237.247 63.8889 240.847 62.4699 246.246C61.5701 249.741 59.7704 261.508 60.0473 261.993C60.3241 262.477 65.3425 264.312 68.0074 264.935C69.3226 265.212 71.503 265.558 72.8873 265.696L75.3446 265.904L75.0331 263.862C74.4101 260.055 75.2754 254.933 77.2135 250.641C79.8784 244.757 85.9697 237.732 92.407 233.198C99.8826 227.903 109.366 224.269 115.838 224.269C117.914 224.269 118.364 223.784 118.364 221.604C118.364 218.973 118.156 218.731 115.976 218.731C111.269 218.731 106.009 217.243 99.848 214.197C87.9078 208.314 78.1826 197.793 75.6561 188.067C74.8947 185.16 74.6524 181.526 75.0331 179.173L75.3446 177.2L73.7526 177.235C72.8873 177.269 71.7798 177.373 71.2953 177.442Z"
            fill="url(#paint14_linear_2496_4535)" fill-opacity="0.6" />
        <path
            d="M124.075 185.437C123.14 186.891 120.96 189.936 119.298 192.22L116.218 196.304L117.118 198.277C118.779 202.015 120.233 208.487 121.306 217.07C121.825 221.119 121.825 221.881 121.306 225.895C120.233 234.513 118.779 240.985 117.118 244.723L116.218 246.696L119.298 250.779C120.96 253.064 123.14 256.109 124.075 257.563C125.044 259.051 125.909 260.262 126.013 260.262C126.29 260.262 129.058 254.379 130.443 250.814C133.834 242.231 136.396 229.633 136.396 221.5C136.396 213.367 133.834 200.769 130.443 192.186C129.058 188.621 126.29 182.737 126.013 182.737C125.909 182.737 125.044 183.949 124.075 185.437Z"
            fill="url(#paint15_linear_2496_4535)" fill-opacity="0.6" />
    </g>
</svg>
