<svg width="20" height="20" viewBox="0 0 20 20" fill="none" xmlns="http://www.w3.org/2000/svg">
<path d="M4.16667 11.6667C4.16667 7.5 10 2.5 10 2.5C10 2.5 15.8333 7.5 15.8333 11.6667C15.8333 12.4327 15.6825 13.1912 15.3893 13.899C15.0961 14.6067 14.6664 15.2498 14.1248 15.7914C13.5831 16.3331 12.94 16.7628 12.2323 17.056C11.5246 17.3491 10.766 17.5 10 17.5C9.23396 17.5 8.47542 17.3491 7.76769 17.056C7.05996 16.7628 6.41691 16.3331 5.87525 15.7914C5.33357 15.2498 4.90388 14.6067 4.61072 13.899C4.31756 13.1912 4.16667 12.4327 4.16667 11.6667V11.6667Z" stroke="#3891FA" stroke-width="1.5" stroke-linecap="round"/>
<path d="M10 15C9.56226 15 9.12879 14.9138 8.72436 14.7463C8.31994 14.5788 7.95246 14.3333 7.64293 14.0238C7.3334 13.7142 7.08787 13.3468 6.92036 12.9423C6.75285 12.5379 6.66665 12.1044 6.66667 11.6667" stroke="#3891FA" stroke-width="1.5" stroke-linecap="round" stroke-linejoin="round"/>
</svg>
