<svg width="240" height="240" viewBox="0 0 240 240" fill="none" xmlns="http://www.w3.org/2000/svg">
<path opacity="0.4" d="M220.206 168.198L188.906 94.9978C183.206 81.5978 174.706 73.9978 165.006 73.4978C155.406 72.9978 146.106 79.6978 139.006 92.4978L120.006 126.598C116.006 133.798 110.306 138.098 104.106 138.598C97.8063 139.198 91.5063 135.898 86.4063 129.398L84.2063 126.598C77.1063 117.698 68.3063 113.398 59.3063 114.298C50.3063 115.198 42.6063 121.398 37.5063 131.498L20.2063 165.998C14.0063 178.498 14.6063 192.998 21.9063 204.798C29.2063 216.598 41.9063 223.698 55.8063 223.698H183.406C196.806 223.698 209.306 216.998 216.706 205.798C224.306 194.598 225.506 180.498 220.206 168.198Z" fill="#989898"/>
<path d="M69.6984 83.8012C88.3657 83.8012 103.498 68.6684 103.498 50.0012C103.498 31.3339 88.3657 16.2012 69.6984 16.2012C51.0312 16.2012 35.8984 31.3339 35.8984 50.0012C35.8984 68.6684 51.0312 83.8012 69.6984 83.8012Z" fill="#989898"/>
</svg>
