<svg width="52" height="53" viewBox="0 0 52 53" fill="none" xmlns="http://www.w3.org/2000/svg">
<path d="M16.5316 30.543L24.453 25.7135V15.6364" stroke="#B6B6B6" stroke-width="3" stroke-linecap="round" stroke-linejoin="round"/>
<path d="M47.6666 37.3334V30.8334C47.6666 29.0366 44.0266 27.5834 39.5416 27.5834C35.0566 27.5834 31.4189 29.0389 31.4166 30.8334V43.8334C31.4189 45.6279 35.0543 47.0834 39.5416 47.0834C44.0289 47.0834 47.6643 45.6278 47.6666 43.8334V30.8334" stroke="#B6B6B6" stroke-width="3" stroke-linecap="round" stroke-linejoin="round"/>
<path d="M31.4189 30.8334C31.4189 32.6278 35.0566 34.0834 39.5439 34.0834C44.0313 34.0834 47.6666 32.6278 47.6666 30.8334" stroke="#B6B6B6" stroke-width="3" stroke-linecap="round" stroke-linejoin="round"/>
<path d="M31.4166 37.3334C31.4166 39.1278 35.0543 40.5834 39.5416 40.5834C44.0289 40.5834 47.6666 39.1278 47.6666 37.3334" stroke="#B6B6B6" stroke-width="3" stroke-linecap="round" stroke-linejoin="round"/>
<path d="M42.8335 20C40.5626 10.053 31.0062 3.53962 20.9177 5.06275C10.8291 6.58589 3.62156 15.6303 4.38855 25.8043C5.15553 35.9783 13.6376 43.8399 23.8405 43.8333" stroke="#B6B6B6" stroke-width="3" stroke-linecap="round" stroke-linejoin="round"/>
</svg>
