<svg width="48" height="47" viewBox="0 0 48 47" fill="none" xmlns="http://www.w3.org/2000/svg">
<path d="M13.3465 44.7615C11.7475 44.7615 10.233 44.4083 8.87237 43.7778L2.33337 45.1667L3.70054 38.6147C3.06571 37.2497 2.71037 35.7287 2.71037 34.1253C2.71037 28.258 7.46621 23.5 13.3357 23.5C19.2052 23.5 23.961 28.258 23.961 34.1253C23.961 39.9927 19.203 44.7507 13.3357 44.7507" stroke="#B6B6B6" stroke-width="3" stroke-linecap="round" stroke-linejoin="round"/>
<path d="M12.326 23.5412C11.4745 21.6887 11 19.6585 11 17.52C11 8.81654 18.7957 1.83337 28.3333 1.83337C37.871 1.83337 45.6667 8.81654 45.6667 17.52C45.6667 22.6637 42.9323 27.192 38.7355 30.0477C38.7377 31.6857 38.7333 33.8935 38.7333 36.2119L31.9322 32.8622C30.7687 33.0854 29.5662 33.2067 28.3333 33.2067C26.7928 33.2067 25.3043 33.0074 23.8787 32.665" stroke="#B6B6B6" stroke-width="3" stroke-linecap="round" stroke-linejoin="round"/>
<path d="M8.39004 34.2567C8.43235 34.299 8.43235 34.3676 8.39004 34.4099C8.34773 34.4522 8.27914 34.4522 8.23683 34.4099C8.19453 34.3676 8.19453 34.299 8.23683 34.2567C8.27914 34.2144 8.34773 34.2144 8.39004 34.2567" stroke="#B6B6B6" stroke-width="3" stroke-linecap="round" stroke-linejoin="round"/>
<path d="M13.265 34.2567C13.3073 34.299 13.3073 34.3676 13.265 34.4099C13.2227 34.4522 13.1541 34.4522 13.1118 34.4099C13.0695 34.3676 13.0695 34.299 13.1118 34.2567C13.1541 34.2144 13.2227 34.2144 13.265 34.2567" stroke="#B6B6B6" stroke-width="3" stroke-linecap="round" stroke-linejoin="round"/>
<path d="M18.14 34.2567C18.1823 34.299 18.1823 34.3676 18.14 34.4099C18.0977 34.4522 18.0291 34.4522 17.9868 34.4099C17.9445 34.3676 17.9445 34.299 17.9868 34.2567C18.0291 34.2144 18.0977 34.2144 18.14 34.2567" stroke="#B6B6B6" stroke-width="3" stroke-linecap="round" stroke-linejoin="round"/>
<path d="M28.3333 19.262C28.3333 17.8385 29.213 17.0672 30.0948 16.4735C30.9572 15.8928 31.8195 15.1367 31.8195 13.7435C31.8195 11.8173 30.2595 10.2573 28.3333 10.2573C26.4072 10.2573 24.8472 11.8173 24.8472 13.7435" stroke="#B6B6B6" stroke-width="3" stroke-linecap="round" stroke-linejoin="round"/>
<path d="M28.3333 24.4924C28.2142 24.4924 28.1167 24.5899 28.1167 24.7091C28.1167 24.8282 28.2142 24.9257 28.3333 24.9257C28.4525 24.9257 28.55 24.8282 28.55 24.7091C28.55 24.5899 28.4525 24.4924 28.3333 24.4924" stroke="#B6B6B6" stroke-width="3" stroke-linecap="round" stroke-linejoin="round"/>
</svg>
