<svg width="52" height="53" viewBox="0 0 52 53" fill="none" xmlns="http://www.w3.org/2000/svg">
<path fill-rule="evenodd" clip-rule="evenodd" d="M6.49182 15.6622H45.5081H6.49182Z" fill="#B6B6B6"/>
<path d="M6.49182 15.6622H45.5081" stroke="#B6B6B6" stroke-width="3" stroke-linecap="round" stroke-linejoin="round"/>
<path fill-rule="evenodd" clip-rule="evenodd" d="M20.7328 24.3326H15.1621H20.7328Z" fill="#B6B6B6"/>
<path d="M20.7328 24.3326H15.1621" stroke="#B6B6B6" stroke-width="3" stroke-linecap="round" stroke-linejoin="round"/>
<path d="M19.4972 37.3379H12.9945C9.40287 37.3379 6.49182 34.4269 6.49182 30.8352V13.4947C6.49182 9.90299 9.40287 6.99194 12.9945 6.99194H39.0054C42.597 6.99194 45.5081 9.90299 45.5081 13.4947V22.1649" stroke="#B6B6B6" stroke-width="3" stroke-linecap="round" stroke-linejoin="round"/>
<path fill-rule="evenodd" clip-rule="evenodd" d="M32.3162 46.9057L29.4377 44.0271C28.6248 43.2143 28.1675 42.111 28.1675 40.9622V35.8836C28.1675 34.7348 28.6248 33.6315 29.4377 32.8186L32.3162 29.9401C33.129 29.1251 34.2323 28.6677 35.3812 28.6677H40.4598C41.6086 28.6677 42.7119 29.1251 43.5247 29.9379L46.4054 32.8186C47.2182 33.6315 47.6756 34.7326 47.6756 35.8836V40.96C47.6756 42.1088 47.2182 43.2121 46.4054 44.025L43.5247 46.9057C42.714 47.7185 41.6107 48.1758 40.4598 48.1758H35.3812C34.2323 48.1758 33.129 47.7185 32.3162 46.9057Z" stroke="#B6B6B6" stroke-width="3" stroke-linecap="round" stroke-linejoin="round"/>
<path d="M37.9237 38.038V34.2361" stroke="#B6B6B6" stroke-width="3" stroke-linecap="round" stroke-linejoin="round"/>
<path d="M37.9216 42.2302C37.8175 42.2302 37.733 42.3147 37.7352 42.4187C37.7352 42.5228 37.8197 42.6073 37.9238 42.6073C38.0278 42.6073 38.1102 42.5228 38.1102 42.4187C38.1102 42.3147 38.0256 42.2302 37.9216 42.2302" stroke="#B6B6B6" stroke-width="3" stroke-linecap="round" stroke-linejoin="round"/>
</svg>
