<svg width="52" height="53" viewBox="0 0 52 53" fill="none" xmlns="http://www.w3.org/2000/svg">
<path fill-rule="evenodd" clip-rule="evenodd" d="M17.3296 35.1705H28.1674H17.3296Z" fill="#B6B6B6"/>
<path d="M17.3296 35.1705H28.1674" stroke="#B6B6B6" stroke-width="3" stroke-linecap="round" stroke-linejoin="round"/>
<path fill-rule="evenodd" clip-rule="evenodd" d="M34.3992 35.4414C34.5489 35.4414 34.6702 35.3201 34.6702 35.1705C34.6702 35.0208 34.5489 34.8995 34.3992 34.8995C34.2496 34.8995 34.1283 35.0208 34.1283 35.1705C34.1283 35.3201 34.2496 35.4414 34.3992 35.4414Z" fill="#B6B6B6"/>
<path d="M34.3992 35.4414C34.5489 35.4414 34.6702 35.3201 34.6702 35.1705C34.6702 35.0208 34.5489 34.8995 34.3992 34.8995C34.2496 34.8995 34.1283 35.0208 34.1283 35.1705C34.1283 35.3201 34.2496 35.4414 34.3992 35.4414" stroke="#B6B6B6" stroke-width="3" stroke-linecap="round" stroke-linejoin="round"/>
<path d="M17.3296 26.5H28.1674" stroke="#B6B6B6" stroke-width="3" stroke-linecap="round" stroke-linejoin="round"/>
<path fill-rule="evenodd" clip-rule="evenodd" d="M8.65942 10.2428V42.7574C8.65942 43.5091 9.04842 44.2072 9.68802 44.6021C10.3276 44.997 11.1262 45.0322 11.7981 44.6952L13.4693 43.8585C14.079 43.5529 14.7973 43.5529 15.4071 43.8585L19.2502 45.779C19.86 46.0846 20.5782 46.0846 21.188 45.779L25.0311 43.8585C25.6409 43.5529 26.3591 43.5529 26.9689 43.8585L30.812 45.779C31.4225 46.0846 32.1414 46.0846 32.752 45.779L36.5907 43.8585C37.2013 43.5529 37.9202 43.5529 38.5307 43.8585L40.2041 44.6952C40.8758 45.0314 41.6737 44.9958 42.3127 44.601C42.9517 44.2062 43.3405 43.5085 43.3405 42.7574V10.2428C43.3405 9.49107 42.9515 8.79294 42.3119 8.39805C41.6723 8.00316 40.8738 7.96792 40.2019 8.30495L38.5307 9.14163C37.9209 9.44726 37.2027 9.44726 36.5929 9.14163L32.7498 7.22116C32.14 6.91554 31.4218 6.91554 30.812 7.22116L26.9689 9.14163C26.3593 9.44509 25.6428 9.44509 25.0332 9.14163L21.1901 7.22116C20.5796 6.91554 19.8607 6.91554 19.2502 7.22116L15.4114 9.14163C14.8009 9.44726 14.082 9.44726 13.4714 9.14163L11.7959 8.30495C11.1242 7.96869 10.3263 8.00434 9.68724 8.39915C9.04821 8.79396 8.65942 9.4916 8.65942 10.2428Z" stroke="#B6B6B6" stroke-width="3" stroke-linecap="round" stroke-linejoin="round"/>
<path d="M34.3992 26.771C34.5489 26.771 34.6702 26.6497 34.6702 26.5C34.6702 26.3504 34.5489 26.2291 34.3992 26.2291C34.2496 26.2291 34.1283 26.3504 34.1283 26.5C34.1283 26.6497 34.2496 26.771 34.3992 26.771" stroke="#B6B6B6" stroke-width="3" stroke-linecap="round" stroke-linejoin="round"/>
<path d="M17.3296 17.8299H28.1674" stroke="#B6B6B6" stroke-width="3" stroke-linecap="round" stroke-linejoin="round"/>
<path d="M34.3992 18.1008C34.5489 18.1008 34.6702 17.9795 34.6702 17.8299C34.6702 17.6802 34.5489 17.5589 34.3992 17.5589C34.2496 17.5589 34.1283 17.6802 34.1283 17.8299C34.1283 17.9795 34.2496 18.1008 34.3992 18.1008" stroke="#323232" stroke-width="1.5" stroke-linecap="round" stroke-linejoin="round"/>
</svg>
