<svg width="52" height="53" viewBox="0 0 52 53" fill="none" xmlns="http://www.w3.org/2000/svg">
<path d="M15.3465 47.7615C13.7475 47.7615 12.233 47.4083 10.8724 46.7778L4.33337 48.1667L5.70054 41.6147C5.06571 40.2497 4.71037 38.7287 4.71037 37.1253C4.71037 31.258 9.46621 26.5 15.3357 26.5C21.2052 26.5 25.961 31.258 25.961 37.1253C25.961 42.9927 21.203 47.7507 15.3357 47.7507" stroke="#B6B6B6" stroke-width="3" stroke-linecap="round" stroke-linejoin="round"/>
<path d="M14.326 26.5412C13.4745 24.6887 13 22.6585 13 20.52C13 11.8165 20.7957 4.83337 30.3333 4.83337C39.871 4.83337 47.6667 11.8165 47.6667 20.52C47.6667 25.6637 44.9323 30.192 40.7355 33.0477C40.7377 34.6857 40.7333 36.8935 40.7333 39.2119L33.9322 35.8622C32.7687 36.0854 31.5662 36.2067 30.3333 36.2067C28.7928 36.2067 27.3043 36.0074 25.8787 35.665" stroke="#B6B6B6" stroke-width="3" stroke-linecap="round" stroke-linejoin="round"/>
<path d="M10.39 37.2567C10.4323 37.299 10.4323 37.3676 10.39 37.4099C10.3477 37.4522 10.2791 37.4522 10.2368 37.4099C10.1945 37.3676 10.1945 37.299 10.2368 37.2567C10.2791 37.2144 10.3477 37.2144 10.39 37.2567" stroke="#B6B6B6" stroke-width="3" stroke-linecap="round" stroke-linejoin="round"/>
<path d="M15.265 37.2567C15.3073 37.299 15.3073 37.3676 15.265 37.4099C15.2227 37.4522 15.1541 37.4522 15.1118 37.4099C15.0695 37.3676 15.0695 37.299 15.1118 37.2567C15.1541 37.2144 15.2227 37.2144 15.265 37.2567" stroke="#B6B6B6" stroke-width="3" stroke-linecap="round" stroke-linejoin="round"/>
<path d="M20.14 37.2567C20.1823 37.299 20.1823 37.3676 20.14 37.4099C20.0977 37.4522 20.0291 37.4522 19.9868 37.4099C19.9445 37.3676 19.9445 37.299 19.9868 37.2567C20.0291 37.2144 20.0977 37.2144 20.14 37.2567" stroke="#B6B6B6" stroke-width="3" stroke-linecap="round" stroke-linejoin="round"/>
<path d="M30.3333 22.262C30.3333 20.8385 31.213 20.0672 32.0948 19.4735C32.9572 18.8928 33.8195 18.1367 33.8195 16.7435C33.8195 14.8173 32.2595 13.2573 30.3333 13.2573C28.4072 13.2573 26.8472 14.8173 26.8472 16.7435" stroke="#B6B6B6" stroke-width="3" stroke-linecap="round" stroke-linejoin="round"/>
<path d="M30.3333 27.4924C30.2142 27.4924 30.1167 27.5899 30.1167 27.7091C30.1167 27.8282 30.2142 27.9257 30.3333 27.9257C30.4525 27.9257 30.55 27.8282 30.55 27.7091C30.55 27.5899 30.4525 27.4924 30.3333 27.4924" stroke="#B6B6B6" stroke-width="3" stroke-linecap="round" stroke-linejoin="round"/>
</svg>
