<svg width="52" height="53" viewBox="0 0 52 53" fill="none" xmlns="http://www.w3.org/2000/svg">
<path d="M43.3406 22.1648V11.327C43.3406 8.93273 41.3997 6.99182 39.0055 6.99182H10.8271C8.43285 6.99182 6.49194 8.93273 6.49194 11.327V41.6729C6.49194 44.0672 8.43285 46.0081 10.8271 46.0081H21.6649" stroke="#B6B6B6" stroke-width="3" stroke-linecap="round" stroke-linejoin="round"/>
<path d="M19.4973 33.0026H21.6649" stroke="#B6B6B6" stroke-width="3" stroke-linecap="round" stroke-linejoin="round"/>
<path d="M19.4973 24.3323H30.3352" stroke="#B6B6B6" stroke-width="3" stroke-linecap="round" stroke-linejoin="round"/>
<path d="M13.2657 33.2736C13.4153 33.2736 13.5366 33.1522 13.5366 33.0026C13.5366 32.853 13.4153 32.7317 13.2657 32.7317C13.116 32.7317 12.9947 32.853 12.9947 33.0026C12.9947 33.1522 13.116 33.2736 13.2657 33.2736" stroke="#B6B6B6" stroke-width="3" stroke-linecap="round" stroke-linejoin="round"/>
<path d="M13.2657 24.6033C13.4153 24.6033 13.5366 24.482 13.5366 24.3323C13.5366 24.1827 13.4153 24.0614 13.2657 24.0614C13.116 24.0614 12.9947 24.1827 12.9947 24.3323C12.9947 24.482 13.116 24.6033 13.2657 24.6033" stroke="#B6B6B6" stroke-width="3" stroke-linecap="round" stroke-linejoin="round"/>
<path d="M37.9216 48.1756C33.9764 48.1756 30.4197 45.7991 28.91 42.1543C27.4003 38.5095 28.2348 34.3141 31.0244 31.5244C33.8141 28.7348 38.0095 27.9003 41.6543 29.41C45.2991 30.9197 47.6756 34.4764 47.6756 38.4216C47.6756 43.8086 43.3086 48.1756 37.9216 48.1756" stroke="#B6B6B6" stroke-width="3" stroke-linecap="round" stroke-linejoin="round"/>
<path d="M44.8188 45.3187L37.9216 38.4215V28.6827" stroke="#B6B6B6" stroke-width="3" stroke-linecap="round" stroke-linejoin="round"/>
<path d="M19.4973 15.6622H30.3352" stroke="#B6B6B6" stroke-width="1.5" stroke-linecap="round" stroke-linejoin="round"/>
<path d="M13.2657 15.9331C13.4153 15.9331 13.5366 15.8118 13.5366 15.6622C13.5366 15.5125 13.4153 15.3912 13.2657 15.3912C13.116 15.3912 12.9947 15.5125 12.9947 15.6622C12.9947 15.8118 13.116 15.9331 13.2657 15.9331" stroke="#B6B6B6" stroke-width="1.5" stroke-linecap="round" stroke-linejoin="round"/>
</svg>
