<svg width="52" height="53" viewBox="0 0 52 53" fill="none" xmlns="http://www.w3.org/2000/svg">
<path d="M10.8333 35.1667C8.43917 35.1667 6.5 33.2275 6.5 30.8333V11.3333C6.5 8.93917 8.43917 7 10.8333 7H30.3333C32.7275 7 34.6667 8.93917 34.6667 11.3333" stroke="#989898" stroke-width="3" stroke-linecap="round" stroke-linejoin="round"/>
<path d="M37.6762 28.788L29.8524 36.6118L25.1572 31.9167" stroke="#989898" stroke-width="3" stroke-linecap="round" stroke-linejoin="round"/>
<path fill-rule="evenodd" clip-rule="evenodd" d="M41.1667 46H21.6667C19.2725 46 17.3334 44.0608 17.3334 41.6667V22.1667C17.3334 19.7725 19.2725 17.8333 21.6667 17.8333H41.1667C43.5609 17.8333 45.5 19.7725 45.5 22.1667V41.6667C45.5 44.0608 43.5609 46 41.1667 46Z" stroke="#989898" stroke-width="3" stroke-linecap="round" stroke-linejoin="round"/>
</svg>
