<svg width="52" height="53" viewBox="0 0 52 53" fill="none" xmlns="http://www.w3.org/2000/svg">
<path d="M39.0054 22.1652V17.4572C39.0054 16.3084 38.548 15.2051 37.7352 14.3923L31.6053 8.26238C30.7925 7.44954 29.6892 6.99219 28.5404 6.99219H12.9946C10.5994 6.99219 8.65942 8.93216 8.65942 11.3273V41.6733C8.65942 44.0685 10.5994 46.0084 12.9946 46.0084H21.6648" stroke="#B6B6B6" stroke-width="3" stroke-linecap="round" stroke-linejoin="round"/>
<path d="M39.0054 17.83H30.3352C29.1387 17.83 28.1676 16.859 28.1676 15.6625V6.99219" stroke="#B6B6B6" stroke-width="3" stroke-linecap="round" stroke-linejoin="round"/>
<path d="M35.7541 48.1761C30.3677 48.1761 26 43.8084 26 38.422C26 33.0356 30.3677 28.668 35.7541 28.668C41.1426 28.668 45.5081 33.0356 45.5081 38.422C45.5081 43.8084 41.1426 48.1761 35.7541 48.1761" stroke="#B6B6B6" stroke-width="3" stroke-linecap="round" stroke-linejoin="round"/>
<path d="M35.7561 38.0601V34.4814" stroke="#B6B6B6" stroke-width="3" stroke-linecap="round" stroke-linejoin="round"/>
<path d="M35.754 42.0096C35.6564 42.0096 35.5762 42.0898 35.5784 42.1873C35.5784 42.2848 35.6586 42.365 35.7562 42.365C35.8537 42.365 35.9317 42.2848 35.9317 42.1873C35.9317 42.0898 35.8537 42.0096 35.754 42.0096" stroke="#B6B6B6" stroke-width="3" stroke-linecap="round" stroke-linejoin="round"/>
</svg>
