<svg width="52" height="53" viewBox="0 0 52 53" fill="none" xmlns="http://www.w3.org/2000/svg">
<path d="M30.3351 6.9917H12.9945C9.40318 6.9917 6.49182 9.90306 6.49182 13.4944V33.0025C6.49182 36.5939 9.40318 39.5052 12.9945 39.5052H17.3448V44.8004C17.3448 45.2638 17.6104 45.6861 18.0281 45.8868C18.4457 46.0875 18.9414 46.0311 19.3032 45.7416L27.0989 39.5052H39.0054C42.5967 39.5052 45.5081 36.5939 45.5081 33.0025V22.1647" stroke="#B6B6B6" stroke-width="3" stroke-linecap="round" stroke-linejoin="round"/>
<path d="M15.1621 28.6673H34.6702" stroke="#B6B6B6" stroke-width="3" stroke-linecap="round" stroke-linejoin="round"/>
<path d="M15.1621 19.9974H23.8324" stroke="#B6B6B6" stroke-width="3" stroke-linecap="round" stroke-linejoin="round"/>
<path fill-rule="evenodd" clip-rule="evenodd" d="M44.8732 9.63932L42.8605 7.62658C42.454 7.22007 41.9027 6.9917 41.3278 6.9917C40.7529 6.9917 40.2016 7.22007 39.7951 7.62658L33.1375 14.2841C32.731 14.6906 32.5027 15.2419 32.5027 15.8168V18.9133C32.5027 19.5119 32.9879 19.9971 33.5865 19.9971H36.6829C37.2578 19.9971 37.8091 19.7687 38.2156 19.3622L44.8732 12.7047C45.7196 11.8582 45.7196 10.4858 44.8732 9.63932Z" stroke="#B6B6B6" stroke-width="3" stroke-linecap="round" stroke-linejoin="round"/>
</svg>
