<svg width="52" height="53" viewBox="0 0 52 53" fill="none" xmlns="http://www.w3.org/2000/svg">
<path d="M17.9703 23.6942C17.9703 23.341 17.6843 23.0572 17.3333 23.0572C16.9802 23.0593 16.6963 23.3453 16.6963 23.6963C16.6963 24.0495 16.9823 24.3333 17.3333 24.3333C17.6843 24.3333 17.9703 24.0473 17.9703 23.6942" stroke="#B6B6B6" stroke-width="3" stroke-linecap="round" stroke-linejoin="round"/>
<path d="M17.3333 23.0572V12.4167C17.3333 9.4245 19.7578 7 22.75 7V7C25.7421 7 28.1666 9.4245 28.1666 12.4167V13.656" stroke="#B6B6B6" stroke-width="3" stroke-linecap="round" stroke-linejoin="round"/>
<path d="M22.0177 33.3965C23.7662 34.6055 25.8809 35.3227 28.1667 35.3227C29.601 35.3227 30.9617 35.0302 32.214 34.5232L38.7335 41.034C39.1409 41.4392 39.6912 41.6667 40.2632 41.6667H43.3334C44.5294 41.6667 45.5 40.696 45.5 39.5V36.4407C45.5 35.8643 45.2704 35.314 44.863 34.9067L38.2677 28.32C38.7227 27.1262 39 25.8435 39 24.4893C39 18.5072 34.1489 13.656 28.1667 13.656C26.468 13.656 24.882 14.0807 23.452 14.7783" stroke="#B6B6B6" stroke-width="3" stroke-linecap="round" stroke-linejoin="round"/>
<path fill-rule="evenodd" clip-rule="evenodd" d="M13.0087 33.5807C11.8018 33.0542 10.6622 32.3197 9.67417 31.3317C5.44267 27.1002 5.44267 20.2427 9.67417 16.0112C13.9057 11.7797 20.7632 11.7797 24.9947 16.0112C29.2262 20.2427 29.2262 27.1002 24.9947 31.3317C24.011 32.3153 22.8757 33.0455 21.6753 33.572L21.6818 42.7522C21.6818 43.3285 21.4543 43.8788 21.047 44.2862L18.8847 46.4485C18.0375 47.2957 16.666 47.2957 15.821 46.4485L13.65 44.2775C13.2448 43.8723 13.0152 43.322 13.0152 42.7478L13.0087 33.5807Z" stroke="#B6B6B6" stroke-width="3" stroke-linecap="round" stroke-linejoin="round"/>
</svg>
