<svg width="20" height="20" viewBox="0 0 20 20" fill="none" xmlns="http://www.w3.org/2000/svg">
<path d="M8.125 8.75L5.43608 6.67831C4.47749 8.18231 3.75 9.9559 3.75 11.875C3.75 13.5326 4.40848 15.1223 5.58058 16.2944C6.75269 17.4665 8.3424 18.125 10 18.125C11.6576 18.125 13.2473 17.4665 14.4194 16.2944C15.5915 15.1223 16.25 13.5326 16.25 11.875C16.25 6.25 10.625 1.875 10.625 1.875L8.125 8.75Z" stroke="#3EC4CD" stroke-width="1.5" stroke-linecap="round" stroke-linejoin="round"/>
<path d="M10 14.9998C10.4377 14.9999 10.8712 14.9137 11.2756 14.7461C11.6801 14.5786 12.0475 14.3331 12.3571 14.0236C12.6666 13.714 12.9121 13.3466 13.0796 12.9421C13.2472 12.5377 13.3334 12.1042 13.3333 11.6665" stroke="#3EC4CD" stroke-width="1.5" stroke-linecap="round" stroke-linejoin="round"/>
</svg>
