<svg width="56" height="56" viewBox="0 0 56 56" fill="none" xmlns="http://www.w3.org/2000/svg">
<path d="M37.4929 11.1506C38.202 10.0302 39.5612 8.96875 40.9796 8.96875C44.1117 8.96875 46.5938 11.4455 46.5938 14.9247V40.5174C46.5938 41.8202 45.5354 42.8762 44.2299 42.8762H41.1569C39.8513 42.8762 38.793 41.8202 38.793 40.5174V27.5441H24.0114C24.173 36.7355 26.0435 40.7172 26.8603 42.4558C27.2787 43.3465 27.4206 43.6485 26.9145 43.7608C20.7094 41.6968 17.6364 32.5566 17.6364 24.5367C17.6364 16.1041 19.882 10.6199 25.7326 9.79432C24.2957 14.8925 24.0569 15.9166 24.0237 22.2369L38.793 22.2369V12.7428C38.793 10.8558 37.4929 11.1506 37.4929 11.1506Z" fill="#BEA645"/>
<path fill-rule="evenodd" clip-rule="evenodd" d="M11.054 31.246C10.5524 31.4575 9.90074 32.6323 9.60604 33.7343C8.0902 39.4029 15.4067 48.2182 24.5441 46.8984C25.3462 46.7826 26.4426 46.3307 26.4426 45.5901C26.4426 45.2427 26.2535 45.2094 25.87 45.1417C25.4887 45.0744 24.9151 44.9732 24.1444 44.4954C19.6736 42.5126 15.7669 35.3441 15.2134 24.7136C15.2134 21.1165 15.5089 18.227 16.7499 16.1041C10.3842 20.7285 11.8662 29.3348 14.4444 36.2447C15.9606 40.3084 18.9036 43.2773 20.0752 44.0353C21.4783 44.943 21.736 45.5942 19.4587 44.5344C16.6253 43.2158 14.1029 39.3609 12.9165 36.5644C12.0664 34.5603 11.8117 33.9223 11.054 31.246Z" fill="#BEA645"/>
</svg>
