<svg width="21" height="20" viewBox="0 0 21 20" fill="none" xmlns="http://www.w3.org/2000/svg">
<path d="M14.7292 6.64062C15.1175 6.64062 15.4323 6.32583 15.4323 5.9375C15.4323 5.54917 15.1175 5.23438 14.7292 5.23438C14.3409 5.23438 14.0261 5.54917 14.0261 5.9375C14.0261 6.32583 14.3409 6.64062 14.7292 6.64062Z" fill="white"/>
<path d="M7.94548 9.59631C7.46368 8.39457 7.4116 7.06333 7.79802 5.82761C8.18444 4.5919 8.98567 3.5275 10.0663 2.81434C11.1469 2.10118 12.4406 1.783 13.7287 1.91358C15.0168 2.04416 16.2204 2.61549 17.1359 3.531C18.0514 4.44651 18.6227 5.65005 18.7533 6.93817C18.8839 8.22629 18.5657 9.52 17.8525 10.6006C17.1394 11.6812 16.075 12.4824 14.8392 12.8689C13.6035 13.2553 12.2723 13.2032 11.0706 12.7214L11.0706 12.7213L10.0419 13.75H8.16687V15.625H6.29187V17.5H3.16687V14.375L7.94562 9.59625L7.94548 9.59631Z" stroke="white" stroke-width="1.5" stroke-linecap="round" stroke-linejoin="round"/>
</svg>
