<svg width="24" height="24" viewBox="0 0 24 24" fill="none" xmlns="http://www.w3.org/2000/svg">
<path d="M17.8336 4.10571C18.1265 3.81281 18.6014 3.81282 18.8943 4.10571C19.1605 4.37198 19.1847 4.78865 18.9669 5.08226L18.8943 5.16637L18.2579 5.80276C17.965 6.09565 17.4901 6.09565 17.1972 5.80276C16.9309 5.53649 16.9067 5.11982 17.1246 4.82621L17.1972 4.7421L17.8336 4.10571Z" fill="white"/>
<path d="M21.0001 10.25C21.4143 10.25 21.7501 10.5858 21.7501 11C21.7501 11.3797 21.4679 11.6935 21.1019 11.7432L21.0001 11.75H20.1001C19.6859 11.75 19.3501 11.4142 19.3501 11C19.3501 10.6203 19.6323 10.3065 19.9983 10.2568L20.1001 10.25H21.0001Z" fill="white"/>
<path d="M3.9 10.25C4.31421 10.25 4.65 10.5858 4.65 11C4.65 11.3797 4.36785 11.6935 4.00177 11.7432L3.9 11.75H3C2.58579 11.75 2.25 11.4142 2.25 11C2.25 10.6203 2.53215 10.3065 2.89823 10.2568L3 10.25H3.9Z" fill="white"/>
<path d="M5.10566 4.10571C5.37193 3.83944 5.78859 3.81524 6.0822 4.0331L6.16632 4.10571L6.80271 4.74211C7.0956 5.03501 7.0956 5.50988 6.8027 5.80277C6.53643 6.06904 6.11977 6.09324 5.82616 5.87538L5.74204 5.80277L5.10565 5.16637C4.81276 4.87347 4.81276 4.3986 5.10566 4.10571Z" fill="white"/>
<path d="M12 1.25C12.3797 1.25 12.6935 1.53215 12.7432 1.89823L12.75 2V2.9C12.75 3.31421 12.4142 3.65 12 3.65C11.6203 3.65 11.3065 3.36785 11.2568 3.00177L11.25 2.9V2C11.25 1.58579 11.5858 1.25 12 1.25Z" fill="white"/>
<path d="M12.0028 5.74997C12.417 5.75153 12.7515 6.08859 12.7499 6.5028C12.7484 6.91701 12.4113 7.25152 11.9971 7.24996C10.1714 7.24306 8.54722 8.40791 7.96827 10.1393C7.38932 11.8708 7.98621 13.7783 9.44884 14.8709C9.78068 15.1188 9.84874 15.5887 9.60085 15.9206C9.35296 16.2524 8.88299 16.3205 8.55114 16.0726C6.56999 14.5927 5.7615 12.0089 6.54569 9.66366C7.32989 7.31842 9.5299 5.74063 12.0028 5.74997Z" fill="white"/>
<path d="M11.9972 5.74997C14.47 5.74062 16.67 7.31836 17.4542 9.66355C18.2384 12.0088 17.43 14.5925 15.4489 16.0725C15.1171 16.3204 14.6471 16.2523 14.3992 15.9205C14.1513 15.5886 14.2194 15.1187 14.5512 14.8708C16.0138 13.7782 16.6106 11.8707 16.0316 10.1393C15.4527 8.40786 13.8285 7.24305 12.0028 7.24996C11.5886 7.25152 11.2516 6.91701 11.25 6.5028C11.2484 6.08859 11.583 5.75154 11.9972 5.74997Z" fill="white"/>
<path d="M15 14.7216C15.3797 14.7216 15.6935 15.0038 15.7432 15.3698L15.75 15.4716V17C15.75 17.9182 15.0429 18.6712 14.1435 18.7442L14 18.75H10C9.08183 18.75 8.32881 18.0429 8.2558 17.1435L8.25 17V15.4717C8.25 15.0575 8.58579 14.7217 9 14.7217C9.3797 14.7217 9.69349 15.0039 9.74315 15.37L9.75 15.4717V17C9.75 17.1183 9.83223 17.2175 9.94268 17.2434L10 17.25H14C14.1183 17.25 14.2175 17.1678 14.2434 17.0573L14.25 17V15.4716C14.25 15.0574 14.5858 14.7216 15 14.7216Z" fill="white"/>
<path d="M14.5 20.25C14.9142 20.25 15.25 20.5858 15.25 21C15.25 21.3797 14.9678 21.6935 14.6018 21.7432L14.5 21.75H9.5C9.08579 21.75 8.75 21.4142 8.75 21C8.75 20.6203 9.03215 20.3065 9.39823 20.2568L9.5 20.25H14.5Z" fill="white"/>
</svg>
