<svg width="20" height="20" viewBox="0 0 20 20" fill="none" xmlns="http://www.w3.org/2000/svg">
<path d="M7.5 17.5H12.5" stroke="#F7992C" stroke-width="1.5" stroke-linecap="round"/>
<path d="M10 2.5C7.12167 2.5 4.275 5 5.16667 8.9725C5.52247 9.89838 5.9418 10.7986 6.42167 11.6667C7.00883 12.6724 7.0725 13.3333 7.0725 15H12.9275C12.9275 13.3333 12.9912 12.6724 13.5783 11.6667C14.0582 10.7986 14.4775 9.89837 14.8333 8.9725C15.725 5 12.8783 2.5 10 2.5Z" stroke="#F7992C" stroke-width="1.5" stroke-miterlimit="10"/>
<path d="M12.5 8.33333C12.6002 7.94589 12.612 7.54086 12.5344 7.14826C12.4568 6.75567 12.2918 6.38557 12.0517 6.06542C11.8116 5.74526 11.5025 5.48325 11.1473 5.29882C10.7921 5.11439 10.4 5.01226 10 5" stroke="#F7992C" stroke-width="1.5" stroke-miterlimit="10" stroke-linecap="round"/>
</svg>
