<svg width="109" height="109" viewBox="0 0 109 109" fill="none" xmlns="http://www.w3.org/2000/svg">
<circle cx="54.5" cy="54.5" r="54.5" fill="white" fill-opacity="0.2"/>
<path fill-rule="evenodd" clip-rule="evenodd" d="M65 72H45C42.79 72 41 70.21 41 68V52C41 49.79 42.79 48 45 48H65C67.21 48 69 49.79 69 52V68C69 70.21 67.21 72 65 72Z" stroke="white" stroke-width="3" stroke-linecap="round" stroke-linejoin="round"/>
<path d="M55 64.18V59" stroke="white" stroke-width="3" stroke-linecap="round" stroke-linejoin="round"/>
<path d="M56.0606 56.4393C56.6464 57.0251 56.6464 57.9749 56.0606 58.5607C55.4748 59.1464 54.5251 59.1464 53.9393 58.5607C53.3535 57.9749 53.3535 57.0251 53.9393 56.4393C54.5251 55.8536 55.4748 55.8536 56.0606 56.4393" stroke="white" stroke-width="3" stroke-linecap="round" stroke-linejoin="round"/>
<path d="M47 48V44V44C47 39.582 50.582 36 55 36V36C59.418 36 63 39.582 63 44V44V48" stroke="white" stroke-width="3" stroke-linecap="round" stroke-linejoin="round"/>
</svg>
