<svg xmlns="http://www.w3.org/2000/svg" xml:space="preserve" width="99" height="25" version="1.1" style="shape-rendering:geometricPrecision; text-rendering:geometricPrecision; image-rendering:optimizeQuality; fill-rule:evenodd; clip-rule:evenodd"
viewBox="0 0 990640 257341"
 xmlns:xlink="http://www.w3.org/1999/xlink"
 xmlns:xodm="http://www.corel.com/coreldraw/odm/2003">
 <g id="Слой_x0020_1">
  <path fill="#FEFEFE" fill-rule="nonzero" d="M377635 167043l-25497 -43483 -25340 0 0 43483 -13886 0 0 -111116 42083 0c10447,0 19070,3200 25921,9601 6850,6401 10262,14547 10262,24413 0,7750 -2222,14468 -6665,20182 -4444,5713 -10368,9654 -17827,11823l26583 45097 -15633 0zm-50837 -97865l0 41210 27508 0c6771,0 12246,-1904 16425,-5767 4179,-3834 6269,-8781 6269,-14838 0,-5978 -2090,-10924 -6322,-14786 -4206,-3888 -9654,-5820 -16372,-5820l-27508 0zm164968 55413c0,1534 -79,3147 -238,4787l-73055 0c1032,7962 4285,14336 9787,19149 5501,4788 12272,7195 20340,7195 5899,0 11136,-1296 15737,-3914 4602,-2592 8226,-6242 10924,-10871l14257 0c-3677,8834 -9072,15685 -16241,20604 -7141,4920 -15367,7353 -24678,7353 -8146,0 -15579,-1930 -22271,-5793 -6691,-3887 -11929,-9231 -15737,-16055 -3783,-6824 -5687,-14441 -5687,-22853 0,-8384 1904,-15975 5687,-22826 3809,-6850 9046,-12193 15737,-16081 6692,-3862 14125,-5820 22271,-5820 8464,0 16029,2037 22641,6057 6612,4020 11691,9469 15208,16320 3545,6824 5316,14415 5316,22747zm-43166 -32323c-7750,0 -14309,2222 -19679,6692 -5369,4470 -8755,10448 -10156,17933l59512 0c-1429,-7591 -4841,-13595 -10183,-18013 -5343,-4417 -11850,-6612 -19494,-6612zm90433 76626c-10130,0 -18251,-2512 -24414,-7591 -6136,-5052 -9390,-11902 -9760,-20525l13172 0c370,4947 2486,8808 6401,11532 3888,2751 8914,4126 15076,4126 5925,0 10766,-1190 14521,-3571 3757,-2380 5608,-5634 5608,-9760 0,-1613 -239,-3068 -767,-4338 -503,-1296 -1349,-2407 -2486,-3306 -1137,-899 -2275,-1666 -3412,-2328 -1137,-634 -2698,-1216 -4682,-1745 -1983,-502 -3676,-899 -5105,-1190 -1428,-291 -3359,-634 -5766,-1057 -1931,-292 -3412,-556 -4471,-767 -1057,-212 -2512,-503 -4338,-927 -1824,-422 -3279,-793 -4364,-1163 -1111,-370 -2434,-820 -4047,-1402 -1587,-555 -2883,-1190 -3835,-1851 -952,-661 -2010,-1455 -3200,-2354 -1190,-927 -2142,-1905 -2830,-2990 -714,-1084 -1402,-2301 -2063,-3597 -661,-1322 -1137,-2804 -1428,-4470 -292,-1641 -423,-3439 -423,-5343 0,-7379 2962,-13357 8913,-17933 5925,-4575 13728,-6877 23382,-6877 9680,0 17404,2408 23223,7168 5820,4788 8834,11242 9099,19335l-12776 0c-265,-4628 -2116,-8226 -5581,-10712 -3465,-2513 -8225,-3757 -14257,-3757 -5793,0 -10394,1111 -13806,3359 -3412,2249 -5106,5237 -5106,8940 0,1455 239,2751 688,3914 476,1164 1243,2169 2328,2990 1084,820 2169,1534 3253,2089 1084,582 2592,1084 4497,1561 1904,449 3544,820 4893,1084 1323,265 3227,555 5634,926 8491,1402 14548,2857 18224,4417 8465,3571 13067,9814 13781,18753 106,980 159,1958 159,2937 0,8014 -3095,14415 -9285,19228 -6215,4788 -14415,7195 -24651,7195zm53693 -102361l0 -15500 14653 0 0 15500 -14653 0zm555 100510l0 -85698 13543 0 0 85698 -13543 0zm109794 -116301l13490 0 0 116301 -10474 0 -1772 -12167c-4047,4444 -8887,7882 -14574,10341 -5687,2460 -11823,3677 -18436,3677 -12829,0 -23382,-4232 -31687,-12749 -8331,-8491 -12484,-19149 -12484,-31952 0,-8464 1878,-16108 5607,-22905 3757,-6798 8993,-12115 15738,-16002 6744,-3862 14335,-5820 22826,-5820 6295,0 12167,1111 17589,3333 5422,2222 10157,5369 14178,9390l0 -41447zm-53191 96120c5950,6003 13463,9019 22509,9019 9046,0 16557,-3042 22536,-9099 6003,-6083 8993,-13595 8993,-22589 0,-9045 -2990,-16584 -8993,-22640 -5978,-6031 -13490,-9046 -22536,-9046 -9046,0 -16558,2989 -22509,9019 -5978,6004 -8967,13569 -8967,22667 0,9099 2989,16637 8967,22668zm173908 -22271c0,1534 -79,3147 -238,4787l-73055 0c1032,7962 4285,14336 9787,19149 5501,4788 12272,7195 20340,7195 5899,0 11136,-1296 15737,-3914 4602,-2592 8226,-6242 10924,-10871l14257 0c-3677,8834 -9072,15685 -16241,20604 -7141,4920 -15367,7353 -24678,7353 -8146,0 -15579,-1930 -22271,-5793 -6691,-3887 -11929,-9231 -15737,-16055 -3783,-6824 -5687,-14441 -5687,-22853 0,-8384 1904,-15975 5687,-22826 3809,-6850 9046,-12193 15737,-16081 6692,-3862 14125,-5820 22271,-5820 8464,0 16029,2037 22641,6057 6612,4020 11691,9469 15208,16320 3545,6824 5316,14415 5316,22747zm-43166 -32323c-7750,0 -14309,2222 -19679,6692 -5369,4470 -8755,10448 -10156,17933l59512 0c-1429,-7591 -4841,-13595 -10183,-18013 -5343,-4417 -11850,-6612 -19494,-6612zm106249 -12802c10025,0 18039,3386 24043,10157 6030,6771 9046,15473 9046,26105l0 51313 -13490 0 0 -48113c0,-8676 -1984,-15367 -5977,-20075 -3968,-4708 -9681,-7062 -17113,-7062 -7326,0 -13490,2750 -18436,8225 -4973,5475 -7459,12246 -7459,20288l0 46737 -13543 0 0 -85698 9601 0 2645 13410c3253,-4814 7538,-8570 12855,-11241 5317,-2698 11268,-4047 17827,-4047zm94453 75092l9311 0 0 12484 -11082 0c-9258,0 -16505,-2671 -21822,-8014 -5290,-5342 -7935,-12670 -7935,-21979l0 -43537 -15103 0 0 -2407 26503 -27905 2089 0 0 18145 26873 0 0 12167 -26873 0 0 43167c0,5766 1535,10209 4655,13278 3095,3068 7565,4602 13384,4602z"/>
  <path fill="#0F90FF" d="M55278 0l118577 0c30201,0 54911,24710 54911,54911l0 95100c0,30201 -24711,54911 -54911,54911l-31945 0 0 -25125 32916 0c15279,0 27780,-12500 27780,-27780l0 -99114c0,-15279 -12501,-27779 -27780,-27779l-120518 0c-15280,0 -27780,12500 -27780,27779l0 10843 -26160 25164 0 -34000c0,-30201 24709,-54911 54911,-54911z"/>
  <path fill="#FEFEFE" d="M20499 108424l68220 -68526 41383 40973 0 -40176 26063 0 0 65982 33027 32699 -37403 0 -63467 -61478 -62008 63564 -61 38385c29450,0 57934,-155 87513,-155 0,25925 200,51593 200,77649l-25756 -52398 -87851 0 -288 -24793c0,-4553 -156,-51050 0,-51206 0,-288 18533,-18619 20429,-20520z"/>
  <polygon fill="#FEFEFE" points="73690,127834 86920,127834 86920,141064 73690,141064 "/>
  <polygon fill="#FEFEFE" points="90397,127834 103628,127834 103628,141064 90397,141064 "/>
  <polygon fill="#FEFEFE" points="73690,144355 86920,144355 86920,157585 73690,157585 "/>
  <polygon fill="#FEFEFE" points="90397,144355 103628,144355 103628,157585 90397,157585 "/>
 </g>
</svg>
