<svg width="109" height="109" viewBox="0 0 109 109" fill="none" xmlns="http://www.w3.org/2000/svg">
<circle cx="54.5" cy="54.5" r="54.5" fill="white" fill-opacity="0.2"/>
<path d="M54.998 68.5C54.584 68.5 54.248 68.836 54.252 69.25C54.25 69.664 54.586 70 55 70C55.414 70 55.75 69.664 55.75 69.25C55.75 68.836 55.414 68.5 54.998 68.5" stroke="white" stroke-width="3" stroke-linecap="round" stroke-linejoin="round"/>
<path d="M43 70L69 36" stroke="white" stroke-width="3" stroke-linecap="round" stroke-linejoin="round"/>
<path d="M59.232 48.774C52.562 47.518 45.358 49.254 40.182 54" stroke="white" stroke-width="3" stroke-linecap="round" stroke-linejoin="round"/>
<path d="M66.028 39.888C55.408 36.106 42.796 38.012 34.188 45.608" stroke="white" stroke-width="3" stroke-linecap="round" stroke-linejoin="round"/>
<path d="M65.5341 50.994C67.0641 51.804 68.5081 52.798 69.8161 54" stroke="white" stroke-width="3" stroke-linecap="round" stroke-linejoin="round"/>
<path d="M71.842 42.744C73.228 43.594 74.574 44.518 75.812 45.608" stroke="white" stroke-width="3" stroke-linecap="round" stroke-linejoin="round"/>
<path d="M59.524 58.854C61.096 59.456 62.572 60.382 63.84 61.642" stroke="white" stroke-width="3" stroke-linecap="round" stroke-linejoin="round"/>
</svg>
