<svg width="20" height="20" viewBox="0 0 20 20" fill="none" xmlns="http://www.w3.org/2000/svg">
<path d="M10 14.375C12.4163 14.375 14.375 12.4162 14.375 9.99998C14.375 7.58375 12.4163 5.625 10 5.625C7.5838 5.625 5.62506 7.58375 5.62506 9.99998C5.62506 12.4162 7.5838 14.375 10 14.375Z" stroke="#A83DC2" stroke-width="1.5" stroke-linecap="round" stroke-linejoin="round"/>
<path d="M16.875 9.37493L17.6803 8.1671C17.7327 8.08928 17.7674 8.00087 17.7819 7.90814C17.7963 7.81541 17.7902 7.72063 17.7639 7.63053C17.612 7.1303 17.4118 6.64604 17.1661 6.18458C17.1211 6.10243 17.0585 6.03124 16.9828 5.97607C16.9071 5.92091 16.8202 5.88314 16.7282 5.86545L15.3034 5.58046L14.4195 4.6966L14.1345 3.27171C14.1168 3.17972 14.0791 3.09277 14.0239 3.01707C13.9687 2.94137 13.8975 2.87878 13.8154 2.83377C13.3539 2.58813 12.8696 2.38795 12.3694 2.23605C12.2793 2.20976 12.1845 2.20362 12.0918 2.21808C11.999 2.23254 11.9106 2.26723 11.8328 2.3197L10.625 3.12487H9.37504L8.16728 2.3197C8.08947 2.26723 8.00105 2.23254 7.90832 2.21808C7.81559 2.20362 7.72081 2.20976 7.63072 2.23605C7.13049 2.38795 6.64621 2.58813 6.18473 2.83377C6.10257 2.87877 6.03137 2.94136 5.9762 3.01707C5.92103 3.09278 5.88325 3.17973 5.86557 3.27173L5.58065 4.69652L4.69671 5.58046L3.2719 5.86538C3.17991 5.88306 3.09296 5.92083 3.01726 5.976C2.94156 6.03116 2.87897 6.10236 2.83396 6.18452C2.58828 6.646 2.38806 7.13029 2.23615 7.63054C2.20986 7.72063 2.20373 7.81541 2.21819 7.90814C2.23265 8.00087 2.26734 8.08928 2.31981 8.16709L3.12499 9.37485V10.6248L2.31981 11.8326C2.26734 11.9104 2.23265 11.9988 2.21819 12.0916C2.20373 12.1843 2.20987 12.2791 2.23616 12.3692C2.38803 12.8694 2.58821 13.3537 2.83387 13.8152C2.87888 13.8973 2.94147 13.9685 3.01717 14.0237C3.09288 14.0789 3.17982 14.1166 3.27181 14.1343L4.69671 14.4193L5.58057 15.3032L5.8655 16.7281C5.88318 16.8201 5.92095 16.907 5.97611 16.9827C6.03128 17.0584 6.10248 17.121 6.18462 17.166C6.64609 17.4117 7.13036 17.6119 7.63059 17.7637C7.72068 17.79 7.81545 17.7962 7.90817 17.7817C8.0009 17.7672 8.0893 17.7326 8.16711 17.6801L9.37496 16.8749H10.625L11.8328 17.6801C11.9106 17.7326 11.999 17.7673 12.0917 17.7818C12.1845 17.7962 12.2793 17.7901 12.3694 17.7638C12.8696 17.6119 13.3538 17.4117 13.8153 17.1661C13.8974 17.1211 13.9686 17.0585 14.0238 16.9828C14.079 16.9071 14.1167 16.8201 14.1344 16.7282L14.4194 15.3032L15.3033 14.4193L16.7282 14.1344C16.8202 14.1167 16.9071 14.0789 16.9828 14.0238C17.0585 13.9686 17.1211 13.8974 17.1661 13.8153C17.4118 13.3538 17.612 12.8695 17.7639 12.3693C17.7902 12.2792 17.7963 12.1844 17.7819 12.0917C17.7674 11.999 17.7327 11.9106 17.6802 11.8328L16.875 10.6249V9.37493Z" stroke="#A83DC2" stroke-width="1.5" stroke-linecap="round" stroke-linejoin="round"/>
</svg>
