<svg width="20" height="20" viewBox="0 0 20 20" fill="none" xmlns="http://www.w3.org/2000/svg">
<g id="Group">
<path id="Path" d="M10.8337 7.49893H14.1685" stroke="#A83DC2" stroke-width="1.5" stroke-linecap="round" stroke-linejoin="round"/>
<path id="Path_2" d="M5.83167 7.27052L6.59782 7.96081L8.14013 6.5719" stroke="#A83DC2" stroke-width="1.5" stroke-linecap="round" stroke-linejoin="round"/>
<path id="Path_3" d="M8.33271 16.6694H6.66535C4.36321 16.6694 2.49695 14.8032 2.49695 12.501V5.83158C2.49695 3.52943 4.36321 1.66318 6.66535 1.66318H13.3348C14.4403 1.66318 15.5006 2.10235 16.2823 2.88407C17.064 3.6658 17.5032 4.72605 17.5032 5.83158V8.33262" stroke="#A83DC2" stroke-width="1.5" stroke-linecap="round" stroke-linejoin="round"/>
<path id="Path_4" d="M5.83167 11.4389L6.59782 12.1292L8.14013 10.7403" stroke="#A83DC2" stroke-width="1.5" stroke-linecap="round" stroke-linejoin="round"/>
<path id="Path_5" d="M11.6674 11.5838V16.3361C11.6682 16.9805 12.9736 17.5031 14.5848 17.5031C16.1961 17.5031 17.5015 16.9805 17.5023 16.3361V11.5838" stroke="#A83DC2" stroke-width="1.5" stroke-linecap="round" stroke-linejoin="round"/>
<path id="Path_6" d="M11.6682 13.96C11.6682 14.6043 12.9744 15.1269 14.5857 15.1269C16.197 15.1269 17.5031 14.6043 17.5031 13.96" stroke="#A83DC2" stroke-width="1.5" stroke-linecap="round" stroke-linejoin="round"/>
<path id="Path_7" d="M11.6682 11.5838C11.6682 12.2282 12.9744 12.7508 14.5857 12.7508C16.1969 12.7508 17.5023 12.2282 17.5023 11.5838C17.5023 10.9386 16.1953 10.4168 14.5848 10.4168C12.9744 10.4168 11.6682 10.9395 11.6674 11.5838" stroke="#A83DC2" stroke-width="1.5" stroke-linecap="round" stroke-linejoin="round"/>
</g>
</svg>
