<svg width="20" height="20" viewBox="0 0 20 20" fill="none" xmlns="http://www.w3.org/2000/svg">
<path d="M14.7833 18.9584H5.21667C3.14167 18.9584 1.45833 17.275 1.45833 15.2V9.59171C1.45833 7.51672 3.14167 5.83337 5.21667 5.83337H14.7833C16.8583 5.83337 18.5417 7.51672 18.5417 9.59171V10.7917C18.5417 11.1334 18.2583 11.4167 17.9167 11.4167H16.2333C15.9417 11.4167 15.675 11.525 15.4833 11.725L15.475 11.7334C15.2417 11.9584 15.1333 12.2667 15.1583 12.5834C15.2083 13.1334 15.7333 13.575 16.3333 13.575H17.9167C18.2583 13.575 18.5417 13.8584 18.5417 14.2V15.1917C18.5417 17.275 16.8583 18.9584 14.7833 18.9584ZM5.21667 7.08337C3.83333 7.08337 2.70833 8.20838 2.70833 9.59171V15.2C2.70833 16.5834 3.83333 17.7084 5.21667 17.7084H14.7833C16.1667 17.7084 17.2917 16.5834 17.2917 15.2V14.8334H16.3333C15.075 14.8334 14.0083 13.9 13.9083 12.7C13.8417 12.0167 14.0917 11.3417 14.5917 10.85C15.025 10.4084 15.6083 10.1667 16.2333 10.1667H17.2917V9.59171C17.2917 8.20838 16.1667 7.08337 14.7833 7.08337H5.21667Z" fill="#3891FA"/>
<path d="M2.08333 10.9666C1.74167 10.9666 1.45833 10.6833 1.45833 10.3416V6.53334C1.45833 5.29167 2.24167 4.16663 3.4 3.72497L10.0167 1.22497C10.7 0.966633 11.4583 1.05833 12.05 1.475C12.65 1.89167 13 2.56667 13 3.29167V6.45832C13 6.79998 12.7167 7.08331 12.375 7.08331C12.0333 7.08331 11.75 6.79998 11.75 6.45832V3.29167C11.75 2.975 11.6 2.68332 11.3333 2.49998C11.0667 2.31665 10.75 2.27498 10.45 2.39165L3.83333 4.89165C3.15833 5.14998 2.7 5.80834 2.7 6.53334V10.3416C2.70833 10.6916 2.425 10.9666 2.08333 10.9666ZM16.3337 14.8335C15.0754 14.8335 14.0087 13.9001 13.9087 12.7001C13.8421 12.0085 14.0921 11.3335 14.5921 10.8418C15.0171 10.4085 15.6004 10.1668 16.2254 10.1668H17.9587C18.7837 10.1918 19.4171 10.8418 19.4171 11.6418V13.3585C19.4171 14.1585 18.7837 14.8085 17.9837 14.8335H16.3337ZM17.9421 11.4168H16.2337C15.9421 11.4168 15.6754 11.5251 15.4837 11.7251C15.2421 11.9585 15.1254 12.2751 15.1587 12.5918C15.2087 13.1418 15.7337 13.5835 16.3337 13.5835H17.9671C18.0754 13.5835 18.1754 13.4835 18.1754 13.3585V11.6418C18.1754 11.5168 18.0754 11.4251 17.9421 11.4168Z" fill="#3891FA"/>
<path d="M11.6667 10.625H5.83333C5.49167 10.625 5.20833 10.3417 5.20833 10C5.20833 9.65833 5.49167 9.375 5.83333 9.375H11.6667C12.0083 9.375 12.2917 9.65833 12.2917 10C12.2917 10.3417 12.0083 10.625 11.6667 10.625Z" fill="#3891FA"/>
</svg>
