<svg width="20" height="20" viewBox="0 0 20 20" fill="none" xmlns="http://www.w3.org/2000/svg">
<path d="M13.6058 11.1358C12.8933 11.1358 12.2191 10.9783 11.6133 10.6975L8.70081 11.3158L9.30997 8.39746C9.02747 7.78996 8.86914 7.11246 8.86914 6.39829C8.86914 3.78579 10.9875 1.66663 13.6016 1.66663C16.2158 1.66663 18.3333 3.78579 18.3333 6.39829C18.3333 9.01079 16.2141 11.13 13.6016 11.13" stroke="white" stroke-width="1.5" stroke-linecap="round" stroke-linejoin="round"/>
<path fill-rule="evenodd" clip-rule="evenodd" d="M12.6666 15.3091L11.8583 14.5008C11.4541 14.0966 10.8 14.0966 10.3966 14.5008L9.76165 15.1358C9.61998 15.2775 9.40498 15.325 9.22165 15.245C8.30081 14.8416 7.39165 14.2308 6.58081 13.42C5.77331 12.6125 5.16415 11.7075 4.76081 10.79C4.67665 10.6008 4.72581 10.3783 4.87248 10.2308L5.44165 9.66165C5.90415 9.19915 5.90415 8.54582 5.49998 8.14165L4.69081 7.33332C4.15248 6.79498 3.28081 6.79498 2.74248 7.33332L2.29331 7.78248C1.78248 8.29332 1.56998 9.02998 1.70748 9.75998C2.04748 11.56 3.09415 13.5316 4.78081 15.2191C6.46748 16.9066 8.43915 17.9525 10.24 18.2925C10.97 18.43 11.7066 18.2175 12.2175 17.7066L12.6666 17.2583C13.2041 16.72 13.2041 15.8475 12.6666 15.3091Z" stroke="white" stroke-width="1.5" stroke-linecap="round" stroke-linejoin="round"/>
<path d="M11.3936 6.46215C11.4099 6.47843 11.4099 6.50481 11.3936 6.52108C11.3774 6.53735 11.351 6.53735 11.3347 6.52108C11.3184 6.50481 11.3184 6.47843 11.3347 6.46215C11.351 6.44588 11.3774 6.44588 11.3936 6.46215" stroke="white" stroke-width="1.5" stroke-linecap="round" stroke-linejoin="round"/>
<path d="M13.5653 6.46215C13.5816 6.47843 13.5816 6.50481 13.5653 6.52108C13.5491 6.53735 13.5227 6.53735 13.5064 6.52108C13.4901 6.50481 13.4901 6.47843 13.5064 6.46215C13.5227 6.44588 13.5491 6.44588 13.5653 6.46215" stroke="white" stroke-width="1.5" stroke-linecap="round" stroke-linejoin="round"/>
<path d="M15.7362 6.46215C15.7524 6.47843 15.7524 6.50481 15.7362 6.52108C15.7199 6.53735 15.6935 6.53735 15.6772 6.52108C15.661 6.50481 15.661 6.47843 15.6772 6.46215C15.6935 6.44588 15.7199 6.44588 15.7362 6.46215" stroke="white" stroke-width="1.5" stroke-linecap="round" stroke-linejoin="round"/>
</svg>
