<svg width="40" height="40" viewBox="0 0 40 40" fill="none" xmlns="http://www.w3.org/2000/svg">
<path opacity="0.4" d="M19.9853 31.0359L9.16574 36.4402C8.34867 36.8837 7.32946 36.5876 6.87246 35.7739C6.739 35.5181 6.66842 35.2337 6.66666 34.9447V22.848C6.66666 24.0473 7.34288 24.7876 9.12164 25.6168L19.9853 31.0359Z" fill="#3891FA"/>
<path d="M25.1158 3.33333C29.6288 3.33333 33.2892 5.11008 33.3333 9.65561V34.9447C33.3315 35.229 33.2609 35.5085 33.1275 35.7591C32.9132 36.1678 32.5432 36.4711 32.1024 36.5996C31.6616 36.728 31.188 36.6705 30.7901 36.4402L19.9853 31.0359L9.12164 25.6168C7.34288 24.7876 6.66666 24.0473 6.66666 22.848V9.65561C6.66666 5.11008 10.3271 3.33333 14.8254 3.33333H25.1158ZM26.2477 13.4016H13.7082C12.9856 13.4016 12.3998 13.9916 12.3998 14.7194C12.3998 15.4471 12.9856 16.0371 13.7082 16.0371H26.2477C26.9703 16.0371 27.556 15.4471 27.556 14.7194C27.556 13.9916 26.9703 13.4016 26.2477 13.4016Z" fill="#3891FA"/>
</svg>
