<svg width="41" height="40" viewBox="0 0 41 40" fill="none" xmlns="http://www.w3.org/2000/svg">
<path d="M34.6527 5.84436C33.902 5.0772 32.7911 4.79346 31.7552 5.09372L7.59933 12.0732C6.50639 12.3765 5.73172 13.2427 5.52304 14.3417C5.30986 15.4617 6.0545 16.8849 7.02734 17.4794L14.5804 22.0914C15.355 22.5658 16.3549 22.4472 16.9959 21.8046L25.6449 13.1557C26.0803 12.7038 26.8009 12.7038 27.2363 13.1557C27.6717 13.5895 27.6717 14.2967 27.2363 14.747L18.5723 23.396C17.9297 24.0386 17.8096 25.0354 18.2826 25.8116L22.8975 33.3931C23.438 34.2924 24.3688 34.8044 25.3897 34.8044C25.5098 34.8044 25.6449 34.8044 25.765 34.7878C26.936 34.6392 27.8668 33.842 28.2121 32.7161L35.3733 8.74186C35.6886 7.72098 35.4033 6.61002 34.6527 5.84436Z" fill="#3891FA"/>
<path opacity="0.4" d="M16.6731 30.7117C17.1115 31.1516 17.1115 31.8647 16.6731 32.3046L14.6224 34.3538C14.4032 34.5745 14.1149 34.6841 13.8267 34.6841C13.5384 34.6841 13.2502 34.5745 13.031 34.3538C12.5911 33.9139 12.5911 33.2023 13.031 32.7624L15.0803 30.7117C15.5201 30.2733 16.2333 30.2733 16.6731 30.7117ZM15.4966 25.0248C15.935 25.4646 15.935 26.1778 15.4966 26.6176L13.4458 28.6669C13.2266 28.8876 12.9384 28.9972 12.6501 28.9972C12.3619 28.9972 12.0736 28.8876 11.8544 28.6669C11.4145 28.227 11.4145 27.5154 11.8544 27.0755L13.9037 25.0248C14.3436 24.5864 15.0567 24.5864 15.4966 25.0248ZM9.8499 23.2346C10.2883 23.6745 10.2883 24.3876 9.8499 24.8275L7.79913 26.8768C7.57994 27.0975 7.29169 27.2071 7.00344 27.2071C6.71519 27.2071 6.42694 27.0975 6.20776 26.8768C5.76788 26.4369 5.76788 25.7253 6.20776 25.2854L8.25702 23.2346C8.6969 22.7962 9.41002 22.7962 9.8499 23.2346Z" fill="#3891FA"/>
</svg>
