<svg width="24" height="24" viewBox="0 0 24 24" fill="none" xmlns="http://www.w3.org/2000/svg">
<path d="M21.0037 12C21.0037 16.9726 16.9726 21.0037 12 21.0037" stroke="white" stroke-width="1.5" stroke-linecap="round" stroke-linejoin="round"/>
<path d="M2.99625 12C2.99625 7.02733 7.02737 2.99622 12 2.99622" stroke="white" stroke-width="1.5" stroke-linecap="round" stroke-linejoin="round"/>
<path d="M2.99625 12C2.99639 13.0546 3.18397 14.1008 3.55024 15.0898C3.71775 15.5492 4.19002 15.8227 4.67181 15.7395L5.65841 15.5656C6.45582 15.425 6.99788 14.6771 6.88337 13.8755L6.58643 11.7969C6.52894 11.3945 6.31067 11.0327 5.98154 10.7941C5.65242 10.5556 5.24061 10.4608 4.84031 10.5313L3.07898 10.8419" stroke="white" stroke-width="1.5" stroke-linecap="round" stroke-linejoin="round"/>
<path d="M21.0037 12C21.0037 7.02733 16.9726 2.99622 12 2.99622" stroke="white" stroke-width="1.5" stroke-linecap="round" stroke-linejoin="round"/>
<path d="M21.0038 12C21.0036 13.0546 20.816 14.1008 20.4498 15.0898C20.2823 15.5492 19.81 15.8227 19.3282 15.7395L18.3416 15.5656C17.5442 15.425 17.0021 14.6771 17.1166 13.8755L17.4136 11.7969C17.4711 11.3945 17.6893 11.0327 18.0185 10.7941C18.3476 10.5556 18.7594 10.4608 19.1597 10.5313L20.921 10.8419" stroke="white" stroke-width="1.5" stroke-linecap="round" stroke-linejoin="round"/>
<path d="M13.4932 12.4912C13.4901 12.4912 13.4874 12.493 13.4863 12.4958C13.4851 12.4986 13.4857 12.5018 13.4879 12.5039C13.49 12.506 13.4932 12.5067 13.496 12.5055C13.4988 12.5044 13.5006 12.5017 13.5006 12.4986C13.5007 12.4966 13.5 12.4946 13.4986 12.4932C13.4971 12.4918 13.4952 12.491 13.4932 12.4912" stroke="white" stroke-width="1.5" stroke-linecap="round" stroke-linejoin="round"/>
<path d="M10.5068 12.4942C10.5038 12.4942 10.5011 12.496 10.4999 12.4988C10.4988 12.5016 10.4994 12.5048 10.5016 12.507C10.5037 12.5091 10.5069 12.5097 10.5097 12.5086C10.5125 12.5074 10.5143 12.5047 10.5143 12.5017C10.5144 12.4997 10.5137 12.4977 10.5123 12.4962C10.5108 12.4948 10.5089 12.4941 10.5068 12.4942" stroke="white" stroke-width="1.5" stroke-linecap="round" stroke-linejoin="round"/>
</svg>
