<svg width="13" height="16" viewBox="0 0 13 16" fill="none" xmlns="http://www.w3.org/2000/svg">
<path d="M10.3159 9.49992C11.2474 9.49992 12.0025 10.2551 12.0025 11.1866V11.6181C12.0025 12.2889 11.7628 12.9375 11.3267 13.447C10.1497 14.8221 8.35927 15.5008 6.0003 15.5008C3.64087 15.5008 1.85136 14.8219 0.67664 13.4463C0.241812 12.937 0.00292969 12.2895 0.00292969 11.6199V11.1866C0.00292969 10.2551 0.758067 9.49992 1.68958 9.49992H10.3159ZM10.3159 10.6249H1.68958C1.37939 10.6249 1.12793 10.8764 1.12793 11.1866V11.6199C1.12793 12.0216 1.27126 12.4101 1.53215 12.7157C2.47213 13.8165 3.94654 14.3758 6.0003 14.3758C8.05402 14.3758 9.52972 13.8164 10.472 12.7155C10.7338 12.4098 10.8775 12.0206 10.8775 11.6181V11.1866C10.8775 10.8764 10.6261 10.6249 10.3159 10.6249ZM6.0003 0.503464C8.07135 0.503464 9.7503 2.1824 9.7503 4.25346C9.7503 6.32454 8.07135 8.00345 6.0003 8.00345C3.9292 8.00345 2.25027 6.32454 2.25027 4.25346C2.25027 2.1824 3.9292 0.503464 6.0003 0.503464ZM6.0003 1.62846C4.55055 1.62846 3.37527 2.80372 3.37527 4.25346C3.37527 5.70321 4.55055 6.87845 6.0003 6.87845C7.45005 6.87845 8.6253 5.70321 8.6253 4.25346C8.6253 2.80372 7.45005 1.62846 6.0003 1.62846Z" fill="#080B16"/>
</svg>
