<svg width="16" height="16" viewBox="0 0 16 16" fill="none" xmlns="http://www.w3.org/2000/svg">
<path fill-rule="evenodd" clip-rule="evenodd" d="M3.87501 8.375V14.375H5.37501V10.625H10.625V14.375H12.125V8.375H13.9078L8.00001 1.81079L2.09222 8.375H3.87501ZM15.3073 8.24825L8.55726 0.748255C8.27301 0.431755 7.72701 0.431755 7.44276 0.748255L0.692761 8.24825C0.494011 8.468 0.444511 8.7845 0.565261 9.05525C0.685261 9.326 0.953761 9.5 1.25001 9.5H2.75001V14.75C2.75001 15.164 3.08526 15.5 3.50001 15.5H5.75001C6.16476 15.5 6.50001 15.164 6.50001 14.75V11.75H9.50001V14.75C9.50001 15.164 9.83526 15.5 10.25 15.5H12.5C12.9148 15.5 13.25 15.164 13.25 14.75V9.5H14.75C15.0463 9.5 15.3148 9.326 15.4348 9.05525C15.5555 8.7845 15.506 8.46875 15.3073 8.24825Z" fill="#080B16"/>
</svg>
