<svg width="56" height="56" viewBox="0 0 56 56" fill="none" xmlns="http://www.w3.org/2000/svg">
<path fill-rule="evenodd" clip-rule="evenodd" d="M43.7497 29.2326C43.7497 34.9519 42.4435 39.214 39.8334 41.9912C37.2195 44.7726 33.1903 46.1562 27.7535 46.1562C22.6733 46.1562 18.8227 44.7729 16.1916 41.9912C13.5645 39.2139 12.25 35.0211 12.25 29.4281C12.25 23.1659 12.25 16.9038 12.25 10.6416C12.25 10.2028 12.6088 9.84375 13.0474 9.84375H22.2583C22.6969 9.84375 23.0557 10.2028 23.0557 10.6416C23.0557 17.0397 23.0557 23.4379 23.0557 29.8361C23.0557 32.1225 23.4786 33.8837 24.3384 35.1232C25.1944 36.357 26.4197 36.9761 28.0169 36.9761C29.6224 36.9761 30.846 36.3978 31.6866 35.2337C32.5275 34.0693 32.9439 32.3521 32.9439 30.0826V26.488H43.7497V29.2326Z" fill="#1E4586"/>
<path fill-rule="evenodd" clip-rule="evenodd" d="M42.9146 24.3907H33.7792H32.944V23.5551V21.1057V10.6794C32.944 10.2198 33.3198 9.84375 33.7792 9.84375H35.2714C35.2746 14.5247 39.0683 18.3186 43.7473 18.3186L43.7498 18.3185V21.1057V23.5551V24.3907H42.9147H42.9146Z" fill="#1E4586"/>
<path fill-rule="evenodd" clip-rule="evenodd" d="M37.3956 9.84375C39.2354 9.84375 41.0751 9.84375 42.9149 9.84375C43.3742 9.84375 43.75 10.2198 43.75 10.6794C43.75 12.5225 43.75 14.3657 43.75 16.2088C40.2406 16.2088 37.3956 13.3621 37.3956 9.85068L37.3957 9.84375H37.3956Z" fill="#FE8700"/>
</svg>
