<svg width="40" height="40" viewBox="0 0 40 40" fill="none" xmlns="http://www.w3.org/2000/svg">
<path opacity="0.4" d="M30.783 28.05L31.433 33.3167C31.5997 34.7 30.1163 35.6667 28.933 34.95L21.9497 30.8C21.183 30.8 20.4332 30.75 19.6998 30.65C20.9332 29.2 21.6663 27.3667 21.6663 25.3833C21.6663 20.65 17.5663 16.8167 12.4997 16.8167C10.5664 16.8167 8.78308 17.3667 7.29975 18.3333C7.24975 17.9167 7.23306 17.5 7.23306 17.0667C7.23306 9.48331 13.8164 3.33333 21.9497 3.33333C30.083 3.33333 36.6663 9.48331 36.6663 17.0667C36.6663 21.5667 34.3497 25.55 30.783 28.05Z" fill="#3891FA"/>
<path d="M21.6667 25.383C21.6667 27.3663 20.9333 29.1997 19.7 30.6497C18.05 32.6497 15.4333 33.933 12.5 33.933L8.14999 36.5163C7.41666 36.9663 6.48333 36.3497 6.58333 35.4997L6.99999 32.2163C4.76666 30.6663 3.33333 28.183 3.33333 25.383C3.33333 22.4497 4.9 19.8663 7.3 18.333C8.78333 17.3663 10.5667 16.8163 12.5 16.8163C17.5667 16.8163 21.6667 20.6497 21.6667 25.383Z" fill="#3891FA"/>
</svg>
